<svg width="38" height="46" viewBox="0 0 38 46" fill="none" xmlns="http://www.w3.org/2000/svg">
<path d="M38 7.20664C37.9906 7.28445 37.9841 7.35827 37.9717 7.43093C37.8899 7.9293 37.808 8.42767 37.7244 8.92547C37.6449 9.39695 37.5612 9.86843 37.4829 10.3405C37.4134 10.7605 37.3522 11.1816 37.2827 11.6016C37.2144 12.017 37.139 12.4307 37.0695 12.8461C37.01 13.2048 36.9564 13.5641 36.8969 13.9229C36.8368 14.2857 36.7727 14.6479 36.712 15.0106C36.6625 15.3076 36.6172 15.6057 36.5677 15.9032C36.5153 16.2179 36.4587 16.5315 36.4069 16.8462C36.3569 17.1483 36.3121 17.4504 36.2626 17.7525C36.2126 18.0586 36.1584 18.3642 36.1083 18.6703C36.0665 18.9238 36.0282 19.1784 35.987 19.4319C35.9387 19.7294 35.8904 20.0264 35.841 20.3239C35.7985 20.5774 35.755 20.8303 35.7126 21.0838C35.6507 21.4505 35.5883 21.8179 35.5282 22.1852C35.4864 22.4387 35.4487 22.6933 35.4075 22.9468C35.3686 23.1871 35.3274 23.4274 35.2874 23.6677C35.245 23.9258 35.2025 24.1838 35.1601 24.4419C35.1113 24.7394 35.0641 25.037 35.0147 25.3339C34.9723 25.5874 34.9281 25.8409 34.8851 26.0944C34.8233 26.4611 34.7614 26.8285 34.7008 27.1958C34.659 27.4493 34.6207 27.7039 34.5795 27.9574C34.5406 28.1977 34.4994 28.438 34.4599 28.6783C34.4169 28.941 34.3745 29.203 34.3309 29.4657C34.2803 29.7672 34.2279 30.0682 34.1772 30.3691C34.1366 30.6095 34.0977 30.8503 34.0582 31.0907C33.9958 31.4666 33.9316 31.8425 33.8704 32.2184C33.8203 32.5245 33.7744 32.8318 33.7243 33.1379C33.6748 33.4395 33.6207 33.7404 33.5706 34.0414C33.5282 34.2949 33.4893 34.5489 33.4493 34.803C33.421 34.9826 33.3969 35.1629 33.3615 35.3408C33.3533 35.3832 33.315 35.4284 33.2779 35.4558C32.7243 35.8672 32.1683 36.2758 31.6136 36.686C30.6465 37.4012 29.6801 38.117 28.7131 38.8317C28.1147 39.274 27.5152 39.7157 26.9162 40.158C25.9415 40.8778 24.9674 41.5988 23.9927 42.3186C23.1641 42.9308 22.3343 43.5419 21.505 44.1541C20.7271 44.728 19.9503 45.3031 19.1723 45.877C19.1181 45.917 19.0621 45.9548 18.9979 46C18.8442 45.8873 18.694 45.7791 18.5456 45.6693C17.3265 44.7681 16.108 43.8663 14.8883 42.9657C13.9131 42.2459 12.936 41.529 11.9613 40.8092C10.6727 39.8571 9.3859 38.9027 8.0973 37.95C6.97714 37.122 5.85581 36.2947 4.73329 35.4684C4.66969 35.4215 4.64142 35.3683 4.62964 35.2916C4.57192 34.9243 4.50655 34.5575 4.44648 34.1902C4.40466 33.9367 4.36815 33.6821 4.32692 33.428C4.28805 33.1877 4.24506 32.9474 4.2056 32.7071C4.16261 32.449 4.12197 32.191 4.07957 31.9329C4.03128 31.6354 3.9824 31.3384 3.93293 31.0409C3.89052 30.7874 3.84694 30.5339 3.80454 30.2804C3.7427 29.9137 3.67968 29.5463 3.61961 29.1796C3.5778 28.9261 3.54069 28.6715 3.49947 28.4174C3.4606 28.1771 3.41819 27.9368 3.37874 27.6965C3.33574 27.4384 3.29452 27.1804 3.25211 26.9223C3.20382 26.6248 3.15553 26.3272 3.10606 26.0303C3.06365 25.7768 3.01948 25.5233 2.97708 25.2699C2.91524 24.9031 2.85281 24.5357 2.79215 24.169C2.75034 23.9155 2.71324 23.6609 2.67201 23.4068C2.63314 23.1665 2.59133 22.9262 2.55187 22.6859C2.50888 22.4278 2.46706 22.1698 2.42466 21.9123C2.37636 21.6147 2.32866 21.3172 2.27919 21.0203C2.23679 20.7668 2.19203 20.5139 2.14962 20.2604C2.08779 19.8936 2.02595 19.5263 1.96529 19.1589C1.91464 18.8528 1.86752 18.5461 1.81746 18.24C1.76799 17.9385 1.71734 17.6369 1.66728 17.3354C1.62606 17.0865 1.58365 16.8376 1.54243 16.5881C1.5012 16.3387 1.46175 16.0892 1.42111 15.8403C1.37929 15.5822 1.3363 15.3248 1.2939 15.0667C1.24502 14.7692 1.19731 14.4716 1.14784 14.1741C1.10544 13.9206 1.06186 13.6677 1.01886 13.4142C0.955848 13.0429 0.891654 12.6721 0.830404 12.3008C0.780934 11.9987 0.736174 11.6966 0.686704 11.3944C0.636644 11.0883 0.581872 10.7833 0.531813 10.4772C0.489998 10.2238 0.451129 9.96913 0.410492 9.71565C0.362199 9.41812 0.314495 9.12058 0.264436 8.82362C0.22321 8.5793 0.17904 8.33498 0.137225 8.09066C0.090699 7.82002 0.0459399 7.54937 0.00118068 7.27873C-0.00235294 7.25756 0.00294702 7.23525 0.00530277 7.19977C6.33579 4.80061 12.6669 2.40088 19.0021 0C19.7706 0.292957 20.5404 0.587065 21.3107 0.87945C22.4473 1.31088 23.5852 1.74002 24.7218 2.17087C25.637 2.51761 26.5522 2.86549 27.4674 3.21224C28.4086 3.56928 29.3503 3.92574 30.2914 4.28164C31.2196 4.63296 32.1489 4.98313 33.0771 5.33445C33.997 5.68291 34.9169 6.03137 35.8368 6.37983C36.5182 6.63788 37.199 6.89651 37.8799 7.15514C37.9175 7.17001 37.9547 7.18718 38 7.20664ZM7.3146 33.8697C11.2039 36.7421 15.1015 39.6207 19.0003 42.5005C22.9103 39.6127 26.8078 36.7341 30.686 33.8697C32.0582 25.5617 33.4251 17.2833 34.7921 9.00386C34.7249 8.9764 34.6749 8.95522 34.6242 8.93577C33.9899 8.69545 33.3551 8.45628 32.7208 8.21597C32.1625 8.00483 31.6047 7.79198 31.0464 7.58142C30.1901 7.25813 29.3338 6.93657 28.4775 6.61386C27.8891 6.39185 27.302 6.16813 26.7142 5.94612C25.8579 5.62284 25.001 5.30127 24.1453 4.97798C23.5575 4.75598 22.9703 4.53226 22.382 4.31082C21.5298 3.98983 20.677 3.66998 19.8242 3.34898C19.5474 3.24485 19.2712 3.14014 18.9997 3.03772C13.7311 5.02662 8.47187 7.01153 3.20736 8.99871C4.57663 17.2925 5.94356 25.5674 7.3146 33.8697Z" fill="black"/>
<path d="M32.0489 10.4883C32.0342 10.6308 32.026 10.7446 32.0101 10.8579C31.9671 11.1652 31.9211 11.4719 31.8752 11.7786C31.8322 12.0675 31.7851 12.3565 31.7439 12.646C31.7026 12.9309 31.6685 13.2176 31.6267 13.5025C31.5854 13.7875 31.5371 14.0713 31.4959 14.3562C31.4629 14.5845 31.4382 14.814 31.4058 15.0429C31.3652 15.3278 31.3181 15.6116 31.2768 15.8965C31.2444 16.1203 31.2179 16.3451 31.1855 16.5689C31.1443 16.8538 31.0978 17.1382 31.0566 17.4231C31.0242 17.6469 30.9971 17.8711 30.9659 18.0949C30.9341 18.3186 30.8987 18.5417 30.8663 18.7655C30.8351 18.98 30.8063 19.1957 30.7751 19.4103C30.7403 19.6472 30.7026 19.8835 30.669 20.1198C30.629 20.4008 30.5931 20.6823 30.5524 20.9632C30.5195 21.1909 30.4812 21.4181 30.4488 21.6458C30.417 21.8701 30.3899 22.0944 30.3593 22.3187C30.3304 22.5339 30.2998 22.7484 30.2692 22.9636C30.2356 23.1964 30.2008 23.4288 30.1661 23.6611C30.1237 23.946 30.0801 24.2304 30.0389 24.5153C30.0071 24.7345 29.9776 24.9542 29.9458 25.1739C29.9128 25.4022 29.8781 25.6299 29.8451 25.8577C29.8139 26.0722 29.7845 26.2874 29.7538 26.5025C29.7203 26.7348 29.6849 26.9671 29.652 27.2C29.6201 27.4283 29.5907 27.6566 29.5595 27.8849C29.5306 28.096 29.5024 28.3072 29.4717 28.5177C29.4388 28.7455 29.4022 28.9726 29.3681 29.2003C29.3327 29.4327 29.2968 29.665 29.2633 29.8973C29.232 30.1124 29.2055 30.3275 29.1743 30.5427C29.1319 30.8362 29.0854 31.1297 29.0436 31.4233C29.0112 31.6476 28.9841 31.8719 28.9523 32.0962C28.9223 32.3107 28.891 32.5253 28.8587 32.7399C28.8433 32.8434 28.8251 32.947 28.8039 33.0752C27.9063 32.6363 27.0288 32.2077 26.1495 31.7775C26.1937 31.5022 26.2367 31.2407 26.2773 30.9793C26.3186 30.7121 26.3574 30.4443 26.3981 30.1765C26.4393 29.9093 26.4823 29.6426 26.5235 29.3754C26.5559 29.1649 26.5865 28.9543 26.6183 28.7437C26.6584 28.4805 26.6984 28.2179 26.7391 27.9553C26.7803 27.6881 26.8233 27.4209 26.8651 27.1542C26.9087 26.8784 26.9529 26.6032 26.9953 26.3274C27.0276 26.1169 27.0559 25.9063 27.0877 25.6963C27.1278 25.4337 27.169 25.171 27.2096 24.9084C27.2414 24.7024 27.2738 24.497 27.3062 24.291C27.3504 24.0112 27.3963 23.7314 27.4393 23.4516C27.4794 23.193 27.5153 22.9338 27.5547 22.6758C27.606 22.3427 27.6596 22.0109 27.7114 21.6779C27.7526 21.4107 27.7909 21.1429 27.8321 20.8751C27.8734 20.6079 27.9169 20.3413 27.9582 20.074C27.9994 19.8068 28.0389 19.5391 28.0801 19.2718C28.1219 19.0006 28.1667 18.7294 28.2091 18.4582C28.2497 18.195 28.288 17.9318 28.3286 17.6686C28.3716 17.3888 28.4181 17.109 28.4605 16.8292C28.5006 16.566 28.5365 16.3028 28.5771 16.0396C28.6095 15.8296 28.6478 15.6208 28.6802 15.4108C28.6873 15.3638 28.6814 15.3152 28.6814 15.2454C25.4446 16.8172 22.2243 18.3804 18.9981 19.9465C15.7707 18.3792 12.551 16.8166 9.33186 15.2534C9.32126 15.2603 9.31065 15.2666 9.30064 15.2734C10.1481 20.7675 10.9956 26.2616 11.846 31.778C10.9756 32.2037 10.0975 32.6334 9.19463 33.0752C9.17049 32.9281 9.14693 32.7999 9.12867 32.6712C9.08804 32.3863 9.05035 32.1007 9.00971 31.8152C8.97614 31.5783 8.9408 31.342 8.90547 31.1051C8.8719 30.8814 8.83538 30.6583 8.80299 30.4351C8.7706 30.2114 8.74351 29.9871 8.71171 29.7634C8.68167 29.5482 8.64928 29.3331 8.61806 29.118C8.58567 28.8948 8.55328 28.6711 8.52089 28.4479C8.48732 28.2156 8.45316 27.9827 8.41959 27.7504C8.38897 27.5359 8.35952 27.3207 8.32772 27.1056C8.28414 26.8075 8.2382 26.51 8.19462 26.2118C8.16399 26.0013 8.13749 25.7901 8.10687 25.5796C8.07271 25.3427 8.03443 25.107 8.00086 24.8701C7.96906 24.6418 7.94373 24.4123 7.91075 24.1835C7.87012 23.8985 7.823 23.6147 7.78177 23.3298C7.74997 23.1106 7.72347 22.8903 7.69167 22.6706C7.65044 22.3857 7.60627 22.1007 7.56505 21.8158C7.53324 21.5966 7.5038 21.3775 7.47199 21.1578C7.43901 20.9249 7.40427 20.6926 7.37129 20.4603C7.34007 20.2411 7.31004 20.022 7.27823 19.8028C7.24525 19.5745 7.21051 19.3468 7.17752 19.1185C7.14631 18.9039 7.11745 18.6888 7.08624 18.4737C7.04266 18.1755 6.99554 17.878 6.95314 17.5799C6.92134 17.3556 6.89542 17.1307 6.86362 16.907C6.83241 16.6879 6.79648 16.4699 6.76468 16.2507C6.73288 16.0356 6.70402 15.8204 6.67339 15.6053C6.63924 15.3684 6.6039 15.1321 6.57033 14.8958C6.53971 14.6807 6.51085 14.4655 6.47963 14.2504C6.43723 13.9568 6.39188 13.6633 6.34948 13.3692C6.31768 13.1501 6.28882 12.9304 6.25819 12.7106C6.22757 12.4909 6.19694 12.2712 6.16514 12.0521C6.13216 11.8198 6.098 11.5874 6.06384 11.3557C6.03145 11.132 5.99788 10.9083 5.96667 10.684C5.95901 10.6279 5.95784 10.5713 5.95312 10.5129C6.05383 10.5203 7.60627 11.2768 8.14103 11.5503C8.85776 11.9176 9.5851 12.2661 10.3083 12.6225C11.0315 12.979 11.7542 13.3355 12.478 13.6914C13.2012 14.0473 13.925 14.4032 14.6482 14.759C15.3714 15.1149 16.0952 15.4697 16.8184 15.8262C17.5411 16.1821 18.2637 16.5391 18.9881 16.8961C19.037 16.8744 19.0782 16.8578 19.1188 16.8378C20.0305 16.3909 20.9422 15.9435 21.8532 15.496C22.4952 15.1807 23.1371 14.8655 23.7785 14.5496C24.7844 14.0547 25.7897 13.5586 26.7956 13.0637C27.4617 12.7358 28.1278 12.408 28.7939 12.0801C29.4682 11.7482 30.1425 11.4164 30.8169 11.0834C31.1844 10.902 31.5507 10.7177 31.9176 10.5358C31.95 10.5198 31.9853 10.5112 32.0489 10.4883Z" fill="black"/>
<path d="M12.1562 18.8984C13.181 19.3922 14.1686 19.8689 15.174 20.3535C15.1869 20.4147 15.2064 20.4817 15.214 20.5498C15.2429 20.8009 15.2688 21.0521 15.2947 21.3039C15.3059 21.4097 15.3153 21.5162 15.3241 21.622C15.353 21.9493 15.3801 22.2766 15.4107 22.6033C15.4455 22.9741 15.4837 23.3449 15.5208 23.7156C15.5574 24.0864 15.5945 24.4572 15.631 24.828C15.6675 25.1987 15.7046 25.5689 15.7411 25.9397C15.7688 26.2224 15.7965 26.505 15.8242 26.7871C15.8607 27.1579 15.8978 27.5281 15.9343 27.8989C15.9708 28.2696 16.0079 28.6404 16.0444 29.0112C16.0809 29.3819 16.118 29.7522 16.1545 30.1229C16.1911 30.4937 16.2282 30.8645 16.2647 31.2352C16.3012 31.606 16.3383 31.9768 16.3748 32.3476C16.4113 32.7183 16.4484 33.0891 16.4849 33.4599C16.5215 33.8307 16.558 34.2009 16.5962 34.5716C16.601 34.6151 16.6163 34.658 16.6286 34.709C16.9284 34.927 17.2317 35.1478 17.5627 35.3887C17.5733 35.0105 17.5662 34.6615 17.5674 34.3124C17.5686 33.9594 17.5674 33.6069 17.5674 33.2539C17.5674 32.9009 17.5674 32.5484 17.5674 32.1954C17.5674 31.8378 17.5674 31.4807 17.5674 31.1231C17.5674 30.7701 17.5674 30.4176 17.5674 30.0646C17.5674 29.7115 17.5674 29.3591 17.5674 29.006C17.5674 28.653 17.5674 28.3005 17.5674 27.9475C17.5674 27.5945 17.5674 27.242 17.5674 26.889C17.5674 26.5359 17.5674 26.1835 17.5674 25.8304C17.5674 25.4728 17.5674 25.1158 17.5674 24.7582C17.5674 24.4051 17.5674 24.0527 17.5674 23.6996C17.5674 23.3466 17.5674 22.9941 17.5674 22.6411C17.5674 22.2886 17.5674 21.9367 17.5674 21.5516C18.058 21.8223 18.5256 22.0803 18.9985 22.3413C19.4691 22.0815 19.9367 21.8234 20.4273 21.5528C20.4273 26.1737 20.4273 30.7638 20.4273 35.3847C20.763 35.1638 21.0545 34.9304 21.3749 34.7067C21.3837 34.638 21.3955 34.5596 21.4043 34.4812C21.4302 34.2478 21.455 34.0143 21.4797 33.7809C21.4909 33.675 21.5027 33.5692 21.5121 33.4633C21.5327 33.2287 21.5486 32.9941 21.5716 32.7601C21.604 32.438 21.644 32.117 21.6764 31.7954C21.7 31.5614 21.7135 31.3262 21.7371 31.0922C21.7695 30.7746 21.8089 30.4582 21.8413 30.1407C21.8649 29.9066 21.8796 29.6715 21.9026 29.4375C21.9244 29.2126 21.9532 28.9883 21.9774 28.764C21.9891 28.6581 21.9992 28.5523 22.0086 28.4464C22.038 28.1191 22.0634 27.7919 22.0957 27.4651C22.127 27.1522 22.1676 26.8397 22.1994 26.5268C22.2235 26.2927 22.2377 26.0576 22.2606 25.8236C22.2824 25.5987 22.3101 25.3744 22.3349 25.1501C22.3466 25.0442 22.3578 24.9384 22.3667 24.8325C22.3873 24.5979 22.4026 24.3633 22.4261 24.1288C22.4585 23.8066 22.4986 23.4856 22.531 23.1641C22.5545 22.93 22.5681 22.6949 22.5916 22.4608C22.624 22.1433 22.6635 21.8269 22.6959 21.5093C22.7194 21.2799 22.7342 21.0493 22.7565 20.8193C22.7713 20.6665 22.793 20.5143 22.8119 20.3615C23.8237 19.874 24.8184 19.3939 25.8349 18.9042C25.8237 19.0575 25.8166 19.1851 25.8037 19.3121C25.7907 19.4397 25.7672 19.5667 25.7548 19.6943C25.7324 19.9329 25.7183 20.1727 25.6941 20.4107C25.6623 20.7283 25.6217 21.0453 25.5899 21.3628C25.5663 21.5968 25.5528 21.8314 25.5292 22.0655C25.4969 22.383 25.4574 22.7 25.425 23.0176C25.4014 23.2516 25.3867 23.4868 25.3638 23.7208C25.342 23.9457 25.3137 24.17 25.289 24.3948C25.2772 24.5052 25.2666 24.6157 25.2572 24.7261C25.2283 25.0534 25.2006 25.3801 25.1706 25.7074C25.1453 25.9815 25.1176 26.255 25.0881 26.5285C25.0546 26.846 25.0157 27.1625 24.9833 27.48C24.9597 27.71 24.9456 27.9406 24.9226 28.1701C24.9003 28.3995 24.8714 28.6278 24.8467 28.8567C24.8349 28.9625 24.8255 29.0684 24.816 29.1748C24.7872 29.5021 24.7595 29.8294 24.7295 30.1567C24.7036 30.4348 24.6765 30.7128 24.647 30.9909C24.6134 31.3039 24.5746 31.6163 24.5428 31.9293C24.5192 32.1587 24.5045 32.3893 24.4821 32.6194C24.4591 32.8528 24.4303 33.0863 24.405 33.3197C24.3938 33.421 24.3844 33.5228 24.3755 33.6247C24.3555 33.8587 24.3396 34.0939 24.316 34.3279C24.2842 34.6409 24.2436 34.9533 24.2124 35.2663C24.1865 35.5226 24.1682 35.7795 24.1447 36.0627C24.1099 36.0959 24.0634 36.1509 24.0068 36.1921C22.8602 37.0314 21.7129 37.8691 20.5657 38.7074C20.0669 39.0718 19.5692 39.4369 19.071 39.8014C19.0498 39.8168 19.0268 39.8306 18.9979 39.85C18.816 39.7184 18.6357 39.5891 18.4567 39.4586C17.7017 38.9071 16.9467 38.3555 16.1916 37.8033C15.4549 37.2643 14.7187 36.7253 13.9831 36.1852C13.9331 36.1486 13.8907 36.1011 13.8624 36.0742C13.8282 35.7595 13.7947 35.4688 13.7664 35.1776C13.7434 34.9481 13.7293 34.7175 13.7063 34.4875C13.684 34.2627 13.6545 34.0389 13.6298 33.8141C13.6174 33.7036 13.6092 33.5932 13.5997 33.4822C13.5709 33.1549 13.5432 32.8282 13.5126 32.5009C13.4872 32.2274 13.4596 31.9539 13.4307 31.6804C13.3971 31.3628 13.3583 31.0459 13.3259 30.7283C13.3023 30.4988 13.2882 30.2683 13.2658 30.0382C13.2434 29.8088 13.2146 29.5799 13.1892 29.3511C13.1775 29.2452 13.168 29.1393 13.1586 29.0329C13.1298 28.7056 13.1027 28.3789 13.072 28.0516C13.0367 27.6763 12.999 27.3009 12.9619 26.9256C12.9348 26.6521 12.9071 26.3786 12.8795 26.1045C12.8424 25.7337 12.8058 25.3635 12.7693 24.9927C12.7328 24.622 12.6957 24.2512 12.6592 23.8804C12.6227 23.5097 12.5856 23.1389 12.5491 22.7681C12.5214 22.4854 12.4937 22.2028 12.466 21.9207C12.4383 21.6426 12.4107 21.3645 12.383 21.087C12.3559 20.8135 12.3276 20.54 12.3005 20.2665C12.2634 19.8912 12.2269 19.5164 12.1892 19.141C12.1816 19.0689 12.1704 18.9997 12.1562 18.8984Z" fill="black"/>
<path d="M26.7325 7.9402C26.7107 8.17594 26.6906 8.38307 26.6718 8.5902C26.66 8.71837 26.6488 8.84711 26.6406 8.97528C26.6288 9.15265 26.6235 9.3306 26.6088 9.50741C26.5858 9.77691 26.5558 10.0458 26.5322 10.3153C26.5169 10.4881 26.5081 10.6609 26.4957 10.8497C25.5469 11.3567 24.594 11.8665 23.6235 12.3849C23.6193 12.3254 23.6111 12.2871 23.6146 12.2493C23.6388 12.0021 23.6653 11.7555 23.6906 11.5083C23.7018 11.4025 23.713 11.2966 23.7224 11.1908C23.743 10.9562 23.7601 10.7216 23.7819 10.4875C23.7942 10.36 23.8178 10.2329 23.829 10.1053C23.8361 10.0258 23.8302 9.94569 23.8302 9.85128C22.7106 9.43359 21.5899 9.01533 20.4485 8.58963C20.4426 8.65428 20.4338 8.70464 20.4332 8.75499C20.4326 9.60811 20.4326 10.4612 20.4326 11.3144C20.4326 12.1051 20.4308 12.8959 20.4349 13.686C20.4355 13.7976 20.4014 13.8629 20.296 13.9166C19.8749 14.1323 19.4585 14.3584 19.0403 14.5798C19.0286 14.5861 19.015 14.5884 18.995 14.5952C18.7335 14.4568 18.4685 14.3172 18.2035 14.1764C18.0303 14.0849 17.8607 13.987 17.6846 13.9023C17.5963 13.86 17.5686 13.8022 17.5704 13.7124C17.5739 13.507 17.5715 13.3015 17.5715 13.0961C17.5715 11.6577 17.5715 10.2192 17.5715 8.78131C17.5715 8.72466 17.5715 8.66859 17.5715 8.58391C16.4202 9.01304 15.2965 9.43245 14.1634 9.85472C14.1769 10.043 14.1875 10.2203 14.2034 10.3966C14.2152 10.5287 14.2381 10.6598 14.2505 10.792C14.2723 11.0214 14.2876 11.252 14.3112 11.4814C14.3336 11.7063 14.3642 11.9306 14.3877 12.1549C14.3948 12.2207 14.3889 12.2876 14.3889 12.3552C14.2906 12.3426 11.6415 10.9373 11.5072 10.828C11.4872 10.5625 11.4696 10.2924 11.4466 10.0224C11.423 9.7483 11.3942 9.47536 11.3694 9.20186C11.3582 9.07827 11.3482 8.9541 11.34 8.82994C11.3282 8.65256 11.3211 8.47462 11.3082 8.29782C11.3005 8.18796 11.2858 8.07809 11.2734 7.95622C11.3323 7.92761 11.3824 7.89843 11.436 7.8784C12.4637 7.4939 13.492 7.11053 14.5208 6.7266C15.7028 6.28602 16.8842 5.84545 18.0662 5.4043C18.3778 5.28814 18.6887 5.17198 19.0038 5.05469C21.5763 6.01652 24.1476 6.97608 26.7325 7.9402Z" fill="black"/>
</svg>
