<svg width="13" height="13" viewBox="0 0 13 13" fill="none" xmlns="http://www.w3.org/2000/svg">
<path d="M12.2446 0.00866795C12.2283 0.0128193 12.1786 0.0221586 12.1339 0.0283852C11.9124 0.0636692 11.5914 0.200652 11.2613 0.401976C10.1814 1.05887 8.48293 2.64767 6.3974 4.95355C5.73812 5.68308 4.9935 6.53715 4.50895 7.12244C4.4287 7.21895 4.33829 7.32792 4.30781 7.36424L4.25296 7.42962L4.06502 7.32896C1.78649 6.11894 0.659919 5.82733 0.195679 6.33064C0.0991735 6.43442 0.0554923 6.52678 0.0199378 6.69697C-0.00647413 6.82461 -0.00647413 6.84952 0.0189219 6.92527C0.0534606 7.02801 0.08292 7.06537 0.254597 7.22622C0.635539 7.58217 1.22066 8.19755 1.55386 8.59086C2.37263 9.56012 3.18124 10.7919 4.1788 12.5903C4.25194 12.7211 4.32813 12.8477 4.34946 12.8726C4.39619 12.9266 4.45104 12.9608 4.53333 12.9868C4.59022 13.0044 4.59529 13.0044 4.65929 12.9868C4.74869 12.9629 4.79034 12.939 4.84113 12.8851C4.89192 12.8311 4.90716 12.801 4.98436 12.6018C5.07376 12.3724 5.25458 11.9293 5.37038 11.6574C6.71536 8.4902 8.35696 5.8045 10.3246 3.55258C10.7808 3.0306 11.4268 2.3571 12.1887 1.60992C12.8084 1.00283 12.9313 0.848207 12.9862 0.602261C13.0044 0.518204 13.0044 0.513015 12.9872 0.446599C12.9252 0.204803 12.7769 0.0813103 12.4732 0.0180082C12.3736 -0.00170898 12.2974 -0.00586033 12.2446 0.00866795Z" fill="white"/>
</svg>
