<svg width="30" height="30" viewBox="0 0 30 30" fill="none" xmlns="http://www.w3.org/2000/svg">
<path d="M14.9884 7.27148C12.9454 7.27148 10.986 8.08181 9.54138 9.52421C8.09675 10.9666 7.28516 12.9229 7.28516 14.9628C7.28516 17.0026 8.09675 18.9589 9.54138 20.4013C10.986 21.8437 12.9454 22.6541 14.9884 22.6541C17.0314 22.6541 18.9908 21.8437 20.4354 20.4013C21.8801 18.9589 22.6916 17.0026 22.6916 14.9628C22.6916 12.9229 21.8801 10.9666 20.4354 9.52421C18.9908 8.08181 17.0314 7.27148 14.9884 7.27148ZM14.9884 19.9578C13.6611 19.9578 12.3882 19.4313 11.4497 18.4943C10.5112 17.5572 9.98396 16.2863 9.98396 14.9611C9.98396 13.6359 10.5112 12.365 11.4497 11.4279C12.3882 10.4909 13.6611 9.96443 14.9884 9.96443C16.3157 9.96443 17.5886 10.4909 18.5271 11.4279C19.4656 12.365 19.9928 13.6359 19.9928 14.9611C19.9928 16.2863 19.4656 17.5572 18.5271 18.4943C17.5886 19.4313 16.3157 19.9578 14.9884 19.9578Z" fill="white"/>
<path d="M22.9978 8.78307C23.9901 8.78307 24.7945 7.97992 24.7945 6.98919C24.7945 5.99846 23.9901 5.19531 22.9978 5.19531C22.0056 5.19531 21.2012 5.99846 21.2012 6.98919C21.2012 7.97992 22.0056 8.78307 22.9978 8.78307Z" fill="white"/>
<path d="M29.2054 5.16633C28.8197 4.17196 28.2303 3.26893 27.475 2.51507C26.7197 1.7612 25.815 1.17311 24.819 0.788423C23.6534 0.351558 22.422 0.115338 21.1773 0.0898202C19.573 0.0199599 19.0649 0 14.9967 0C10.9285 0 10.407 -1.67303e-07 8.81608 0.0898202C7.57228 0.114033 6.34178 0.350302 5.1777 0.788423C4.18137 1.17266 3.27648 1.7606 2.5211 2.51452C1.76572 3.26844 1.17652 4.1717 0.791315 5.16633C0.353684 6.33003 0.117639 7.55961 0.0932919 8.8024C0.021657 10.4025 0 10.9098 0 14.9734C0 19.0353 -1.24121e-08 19.5526 0.0932919 21.1444C0.118281 22.3886 0.353176 23.6161 0.791315 24.7821C1.17761 25.7764 1.76737 26.6793 2.52294 27.4331C3.2785 28.1869 4.18325 28.7751 5.17937 29.16C6.34124 29.6144 7.57225 29.8676 8.81941 29.9085C10.4237 29.9784 10.9318 30 15 30C19.0682 30 19.5896 30 21.1806 29.9085C22.4252 29.8832 23.6565 29.6476 24.8223 29.2116C25.8181 28.826 26.7225 28.2374 27.4777 27.4833C28.233 26.7293 28.8225 25.8263 29.2087 24.832C29.6468 23.6677 29.8817 22.4401 29.9067 21.1959C29.9783 19.5958 30 19.0885 30 15.025C30 10.9614 30 10.4458 29.9067 8.85396C29.8873 7.5936 29.65 6.34606 29.2054 5.16633ZM27.1763 21.0213C27.1655 21.9799 26.9903 22.9295 26.6582 23.829C26.408 24.4758 26.025 25.0632 25.5338 25.5534C25.0426 26.0435 24.4541 26.4256 23.8061 26.675C22.9152 27.0051 21.9742 27.18 21.024 27.1923C19.4414 27.2655 18.9949 27.2838 14.9367 27.2838C10.8752 27.2838 10.4604 27.2838 8.84773 27.1923C7.89804 27.1807 6.95745 27.0057 6.0673 26.675C5.41707 26.4271 4.82619 26.0457 4.33289 25.5555C3.83959 25.0652 3.45486 24.4771 3.20358 23.829C2.87613 22.9392 2.70099 22.0007 2.68547 21.0529C2.61384 19.4727 2.59718 19.0269 2.59718 14.9751C2.59718 10.9215 2.59718 10.5073 2.68547 8.89554C2.69624 7.9375 2.87148 6.98839 3.20358 6.08949C3.71168 4.77711 4.75289 3.74418 6.0673 3.24185C6.95789 2.91274 7.8982 2.7378 8.84773 2.72455C10.432 2.65303 10.8768 2.63307 14.9367 2.63307C18.9966 2.63307 19.413 2.63307 21.024 2.72455C21.9742 2.73596 22.9154 2.91096 23.8061 3.24185C24.454 3.4918 25.0424 3.87426 25.5336 4.36465C26.0248 4.85505 26.4078 5.44257 26.6582 6.08949C26.9856 6.97929 27.1607 7.91777 27.1763 8.8656C27.2479 10.4474 27.2662 10.8916 27.2662 14.9451C27.2662 18.997 27.2662 19.4328 27.1946 21.023H27.1763V21.0213Z" fill="white"/>
</svg>
