<svg width="28" height="34" viewBox="0 0 28 34" fill="none" xmlns="http://www.w3.org/2000/svg">
<path d="M28 5.32664C27.9931 5.38416 27.9883 5.43872 27.9792 5.49243C27.9188 5.86079 27.8585 6.22915 27.7969 6.59709C27.7383 6.94557 27.6767 7.29405 27.619 7.64296C27.5678 7.95338 27.5226 8.26465 27.4714 8.57507C27.4211 8.88211 27.3656 9.18788 27.3144 9.49492C27.2705 9.76009 27.231 10.0257 27.1872 10.2908C27.1429 10.559 27.0956 10.8267 27.0509 11.0948C27.0145 11.3143 26.9811 11.5346 26.9446 11.7546C26.906 11.9872 26.8643 12.2189 26.8262 12.4515C26.7893 12.6748 26.7563 12.8981 26.7198 13.1214C26.6829 13.3477 26.643 13.5735 26.6061 13.7998C26.5753 13.9871 26.5471 14.1753 26.5167 14.3627C26.4812 14.5826 26.4456 14.8021 26.4091 15.022C26.3779 15.2094 26.3458 15.3963 26.3145 15.5837C26.269 15.8547 26.223 16.1263 26.1787 16.3978C26.1479 16.5851 26.1201 16.7733 26.0897 16.9607C26.0611 17.1383 26.0307 17.3159 26.0012 17.4935C25.97 17.6843 25.9387 17.875 25.9075 18.0658C25.8715 18.2857 25.8367 18.5056 25.8003 18.7251C25.769 18.9124 25.7365 19.0998 25.7048 19.2871C25.6593 19.5582 25.6137 19.8297 25.569 20.1013C25.5382 20.2886 25.51 20.4768 25.4796 20.6642C25.451 20.8418 25.4206 21.0194 25.3915 21.197C25.3598 21.3911 25.3286 21.5848 25.2965 21.779C25.2591 22.0018 25.2205 22.2243 25.1832 22.4468C25.1533 22.6244 25.1246 22.8024 25.0955 22.9801C25.0495 23.2579 25.0022 23.5358 24.9571 23.8136C24.9202 24.0399 24.8864 24.267 24.8495 24.4932C24.813 24.7161 24.7731 24.9386 24.7362 25.161C24.705 25.3484 24.6763 25.5362 24.6468 25.7239C24.626 25.8567 24.6082 25.99 24.5822 26.1215C24.5761 26.1528 24.5479 26.1862 24.5206 26.2065C24.1126 26.5106 23.703 26.8125 23.2942 27.1158C22.5817 27.6444 21.8695 28.1735 21.157 28.7017C20.7161 29.0286 20.2743 29.3551 19.833 29.682C19.1148 30.214 18.397 30.7469 17.6788 31.279C17.0683 31.7315 16.4568 32.1831 15.8458 32.6357C15.2726 33.0599 14.7002 33.4849 14.1269 33.9091C14.087 33.9387 14.0458 33.9666 13.9985 34C13.8852 33.9167 13.7746 33.8368 13.6652 33.7556C12.7669 33.0895 11.8691 32.4229 10.9704 31.7573C10.2517 31.2252 9.5318 30.6953 8.8136 30.1633C7.86411 29.4596 6.91592 28.7541 5.96643 28.05C5.14105 27.438 4.3148 26.8265 3.48769 26.2158C3.44082 26.1811 3.41999 26.1418 3.41131 26.0851C3.36878 25.8136 3.32062 25.5425 3.27635 25.271C3.24554 25.0836 3.21864 24.8954 3.18826 24.7077C3.15962 24.53 3.12794 24.3524 3.09887 24.1748C3.06719 23.9841 3.03724 23.7933 3.006 23.6026C2.97042 23.3827 2.9344 23.1632 2.89794 22.9433C2.8667 22.7559 2.83459 22.5686 2.80334 22.3812C2.75778 22.1101 2.71135 21.8386 2.66708 21.5675C2.63627 21.3802 2.60893 21.192 2.57855 21.0042C2.54991 20.8266 2.51867 20.6489 2.48959 20.4713C2.45792 20.2806 2.42754 20.0898 2.39629 19.8991C2.36071 19.6792 2.32513 19.4593 2.28867 19.2398C2.25743 19.0524 2.22488 18.8651 2.19364 18.6777C2.14807 18.4066 2.10207 18.1351 2.05738 17.864C2.02657 17.6767 1.99923 17.4885 1.96885 17.3007C1.94021 17.1231 1.9094 16.9454 1.88032 16.7678C1.84864 16.5771 1.81783 16.3863 1.78659 16.196C1.75101 15.9761 1.71585 15.7562 1.6794 15.5367C1.64816 15.3494 1.61518 15.1624 1.58393 14.9751C1.53837 14.704 1.4928 14.4325 1.44811 14.161C1.41079 13.9347 1.37607 13.708 1.33918 13.4818C1.30273 13.2589 1.26541 13.036 1.22852 12.8131C1.19815 12.6292 1.1669 12.4452 1.13653 12.2608C1.10615 12.0764 1.07708 11.892 1.04713 11.708C1.01632 11.5173 0.984643 11.327 0.953398 11.1363C0.91738 10.9163 0.88223 10.6964 0.845778 10.4765C0.814533 10.2892 0.782421 10.1022 0.750742 9.91487C0.704309 9.6404 0.657008 9.36635 0.611877 9.09188C0.575425 8.86858 0.542444 8.64528 0.505992 8.42198C0.469106 8.19572 0.428748 7.9703 0.391862 7.74404C0.361051 7.55669 0.332411 7.36849 0.302468 7.18113C0.266883 6.96122 0.231733 6.7413 0.194847 6.52181C0.164471 6.34122 0.131924 6.16064 0.101113 5.98005C0.0668308 5.78001 0.0338505 5.57997 0.000869974 5.37993C-0.00173375 5.36428 0.00217149 5.34779 0.00390731 5.32157C4.66848 3.54828 9.33348 1.77456 14.0015 0C14.5678 0.216534 15.135 0.433918 15.7026 0.650029C16.5401 0.968908 17.3785 1.2861 18.2161 1.60456C18.8904 1.86084 19.5648 2.11797 20.2392 2.37426C20.9326 2.63816 21.6265 2.90164 22.32 3.16469C23.0039 3.42436 23.6887 3.68318 24.3726 3.94286C25.0504 4.20041 25.7282 4.45797 26.4061 4.71553C26.9082 4.90626 27.4098 5.09742 27.9115 5.28858C27.9392 5.29958 27.9666 5.31226 28 5.32664ZM5.38971 25.0342C8.25554 27.1572 11.1274 29.2849 14.0002 31.4134C16.8812 29.279 19.7531 27.1513 22.6107 25.0342C23.6218 18.8934 24.629 12.7746 25.6363 6.65503C25.5868 6.63473 25.5499 6.61908 25.5126 6.6047C25.0452 6.42707 24.5774 6.2503 24.11 6.07267C23.6986 5.91661 23.2877 5.75929 22.8763 5.60366C22.2453 5.36471 21.6144 5.12703 20.9834 4.8885C20.5499 4.72441 20.1172 4.55905 19.6841 4.39496C19.0532 4.15601 18.4218 3.91833 17.7912 3.67938C17.3582 3.51529 16.9255 3.34993 16.492 3.18626C15.864 2.949 15.2357 2.71259 14.6073 2.47533C14.4034 2.39836 14.1998 2.32097 13.9998 2.24527C10.1176 3.71533 6.24243 5.18243 2.36331 6.65122C3.37226 12.7814 4.37946 18.8976 5.38971 25.0342Z" fill="white"/>
<path d="M23.6152 7.75195C23.6044 7.85726 23.5983 7.94142 23.5866 8.02516C23.5549 8.25227 23.521 8.47895 23.4872 8.70563C23.4555 8.91921 23.4208 9.13278 23.3904 9.34678C23.36 9.55739 23.3349 9.76927 23.3041 9.97988C23.2737 10.1905 23.2381 10.4003 23.2077 10.6109C23.1834 10.7796 23.1652 10.9492 23.1413 11.1184C23.1114 11.329 23.0767 11.5388 23.0463 11.7494C23.0224 11.9147 23.0029 12.0809 22.979 12.2463C22.9487 12.4569 22.9144 12.6671 22.884 12.8777C22.8601 13.0431 22.8402 13.2089 22.8172 13.3742C22.7937 13.5396 22.7677 13.7045 22.7438 13.8699C22.7208 14.0285 22.6996 14.1879 22.6766 14.3465C22.651 14.5216 22.6232 14.6963 22.5985 14.8709C22.5689 15.0786 22.5425 15.2866 22.5125 15.4943C22.4882 15.6626 22.46 15.8305 22.4362 15.9988C22.4127 16.1646 22.3928 16.3304 22.3702 16.4962C22.3489 16.6552 22.3264 16.8138 22.3038 16.9728C22.2791 17.1449 22.2535 17.3166 22.2279 17.4884C22.1966 17.699 22.1645 17.9092 22.1341 18.1198C22.1107 18.2817 22.089 18.4441 22.0656 18.6065C22.0413 18.7753 22.0157 18.9436 21.9914 19.1119C21.9684 19.2705 21.9467 19.4295 21.9241 19.5886C21.8994 19.7603 21.8733 19.932 21.849 20.1041C21.8256 20.2728 21.8039 20.4416 21.7809 20.6103C21.7596 20.7664 21.7388 20.9224 21.7162 21.0781C21.6919 21.2464 21.665 21.4143 21.6398 21.5826C21.6138 21.7543 21.5873 21.926 21.5626 22.0977C21.5396 22.2567 21.5201 22.4158 21.4971 22.5748C21.4658 22.7917 21.4316 23.0087 21.4007 23.2256C21.3769 23.3914 21.3569 23.5572 21.3335 23.723C21.3113 23.8816 21.2883 24.0402 21.2645 24.1988C21.2532 24.2753 21.2397 24.3519 21.2241 24.4466C20.5628 24.1222 19.9162 23.8055 19.2683 23.4874C19.3008 23.284 19.3325 23.0907 19.3625 22.8975C19.3928 22.7 19.4215 22.502 19.4514 22.3041C19.4818 22.1066 19.5135 21.9095 19.5439 21.712C19.5677 21.5564 19.5903 21.4008 19.6137 21.2451C19.6432 21.0506 19.6727 20.8565 19.7027 20.6623C19.7331 20.4648 19.7647 20.2673 19.7955 20.0703C19.8277 19.8664 19.8602 19.663 19.8914 19.4591C19.9153 19.3035 19.9361 19.1479 19.9596 18.9927C19.9891 18.7985 20.0195 18.6044 20.0494 18.4103C20.0728 18.2581 20.0967 18.1062 20.1206 17.954C20.1531 17.7472 20.187 17.5404 20.2186 17.3336C20.2482 17.1424 20.2746 16.9508 20.3037 16.7601C20.3415 16.5139 20.3809 16.2687 20.4191 16.0225C20.4495 15.825 20.4777 15.6271 20.5081 15.4292C20.5385 15.2317 20.5706 15.0346 20.601 14.8371C20.6313 14.6396 20.6604 14.4417 20.6908 14.2442C20.7216 14.0437 20.7546 13.8432 20.7858 13.6428C20.8158 13.4482 20.844 13.2537 20.8739 13.0591C20.9056 12.8523 20.9399 12.6455 20.9711 12.4387C21.0006 12.2442 21.0271 12.0496 21.057 11.8551C21.0809 11.6999 21.1091 11.5455 21.133 11.3903C21.1382 11.3556 21.1339 11.3197 21.1339 11.2681C18.7488 12.4298 16.376 13.5852 13.9988 14.7428C11.6207 13.5844 9.2483 12.4294 6.87631 11.274C6.8685 11.2791 6.86069 11.2837 6.85331 11.2888C7.47777 15.3497 8.10223 19.4105 8.72886 23.4879C8.08747 23.8025 7.44045 24.1201 6.7752 24.4466C6.75741 24.3379 6.74005 24.2432 6.7266 24.148C6.69665 23.9374 6.66888 23.7264 6.63894 23.5153C6.6142 23.3403 6.58817 23.1656 6.56213 22.9905C6.53739 22.8251 6.51049 22.6602 6.48662 22.4953C6.46275 22.3299 6.44279 22.1641 6.41936 21.9988C6.39723 21.8397 6.37336 21.6807 6.35036 21.5217C6.32649 21.3568 6.30262 21.1914 6.27876 21.0265C6.25402 20.8548 6.22885 20.6826 6.20412 20.5109C6.18155 20.3523 6.15985 20.1933 6.13642 20.0343C6.10431 19.814 6.07046 19.5941 6.03835 19.3737C6.01578 19.2181 5.99625 19.062 5.97369 18.9064C5.94852 18.7313 5.92031 18.5571 5.89558 18.382C5.87214 18.2132 5.85348 18.0436 5.82918 17.8745C5.79924 17.6639 5.76452 17.4541 5.73415 17.2435C5.71071 17.0815 5.69118 16.9187 5.66775 16.7563C5.63737 16.5457 5.60483 16.3351 5.57445 16.1244C5.55102 15.9625 5.52932 15.8005 5.50589 15.6381C5.48158 15.466 5.45598 15.2943 5.43168 15.1226C5.40868 14.9606 5.38655 14.7986 5.36311 14.6366C5.33881 14.4679 5.31321 14.2996 5.28891 14.1308C5.26591 13.9722 5.24464 13.8132 5.22165 13.6542C5.18953 13.4338 5.15482 13.2139 5.12357 12.9936C5.10014 12.8278 5.08104 12.6616 5.05761 12.4962C5.03461 12.3343 5.00814 12.1731 4.98471 12.0112C4.96127 11.8521 4.94001 11.6931 4.91744 11.5341C4.89227 11.359 4.86624 11.1843 4.8415 11.0097C4.81894 10.8507 4.79767 10.6916 4.77467 10.5326C4.74343 10.3157 4.71001 10.0987 4.67877 9.88134C4.65534 9.71937 4.63407 9.55697 4.61151 9.39457C4.58894 9.23217 4.56638 9.06977 4.54294 8.90779C4.51864 8.73608 4.49347 8.56438 4.4683 8.3931C4.44443 8.22774 4.4197 8.06238 4.3967 7.89659C4.39106 7.85515 4.39019 7.81328 4.38672 7.77014C4.46092 7.77564 5.60483 8.33474 5.99886 8.53689C6.52698 8.8084 7.06291 9.06596 7.59581 9.32944C8.1287 9.59291 8.66116 9.85639 9.19449 10.1194C9.72739 10.3825 10.2607 10.6456 10.7936 10.9086C11.3265 11.1717 11.8598 11.4339 12.3927 11.6973C12.9252 11.9604 13.4577 12.2243 13.9914 12.4882C14.0274 12.4721 14.0578 12.4599 14.0878 12.4451C14.7595 12.1148 15.4313 11.784 16.1026 11.4533C16.5756 11.2203 17.0486 10.9873 17.5212 10.7538C18.2624 10.388 19.0031 10.0213 19.7443 9.6555C20.2351 9.41317 20.7259 9.17084 21.2167 8.92851C21.7136 8.68322 22.2105 8.43793 22.7074 8.19179C22.9782 8.05772 23.2481 7.92155 23.5184 7.78706C23.5423 7.77522 23.5683 7.76887 23.6152 7.75195Z" fill="white"/>
<path d="M8.95703 13.9688C9.71211 14.3337 10.4399 14.686 11.1806 15.0442C11.1902 15.0895 11.2045 15.139 11.2101 15.1893C11.2314 15.3749 11.2505 15.5606 11.2696 15.7467C11.2778 15.8249 11.2848 15.9036 11.2913 15.9818C11.3125 16.2237 11.3325 16.4657 11.3551 16.7071C11.3807 16.9812 11.4089 17.2552 11.4362 17.5293C11.4631 17.8033 11.4905 18.0774 11.5174 18.3514C11.5443 18.6255 11.5716 18.8991 11.5985 19.1732C11.6189 19.3821 11.6393 19.591 11.6597 19.7995C11.6866 20.0736 11.7139 20.3472 11.7408 20.6212C11.7677 20.8953 11.7951 21.1693 11.822 21.4434C11.8489 21.7174 11.8762 21.9911 11.9031 22.2651C11.93 22.5392 11.9574 22.8132 11.9843 23.0873C12.0112 23.3613 12.0385 23.6354 12.0654 23.9094C12.0923 24.1835 12.1197 24.4575 12.1466 24.7316C12.1735 25.0056 12.2004 25.2792 12.2286 25.5533C12.2321 25.5854 12.2434 25.6172 12.2525 25.6548C12.4734 25.8159 12.6968 25.9792 12.9407 26.1572C12.9485 25.8777 12.9433 25.6197 12.9442 25.3617C12.9451 25.1008 12.9442 24.8403 12.9442 24.5793C12.9442 24.3184 12.9442 24.0579 12.9442 23.7969C12.9442 23.5326 12.9442 23.2687 12.9442 23.0044C12.9442 22.7434 12.9442 22.4829 12.9442 22.222C12.9442 21.961 12.9442 21.7005 12.9442 21.4396C12.9442 21.1786 12.9442 20.9181 12.9442 20.6572C12.9442 20.3962 12.9442 20.1357 12.9442 19.8748C12.9442 19.6138 12.9442 19.3533 12.9442 19.0924C12.9442 18.8281 12.9442 18.5642 12.9442 18.2998C12.9442 18.0389 12.9442 17.7784 12.9442 17.5174C12.9442 17.2565 12.9442 16.996 12.9442 16.7351C12.9442 16.4745 12.9442 16.2144 12.9442 15.9298C13.3057 16.1299 13.6502 16.3206 13.9987 16.5134C14.3454 16.3214 14.69 16.1307 15.0515 15.9307C15.0515 19.3461 15.0515 22.7388 15.0515 26.1543C15.2988 25.991 15.5136 25.8185 15.7497 25.6531C15.7562 25.6023 15.7649 25.5444 15.7714 25.4865C15.7905 25.3139 15.8087 25.1414 15.827 24.9688C15.8352 24.8906 15.8439 24.8123 15.8508 24.7341C15.866 24.5607 15.8777 24.3873 15.8946 24.2143C15.9185 23.9762 15.948 23.739 15.9719 23.5013C15.9893 23.3283 15.9992 23.1545 16.0166 22.9815C16.0405 22.7468 16.0695 22.5129 16.0934 22.2782C16.1108 22.1052 16.1216 21.9314 16.1385 21.7585C16.1546 21.5923 16.1759 21.4265 16.1936 21.2607C16.2023 21.1824 16.2097 21.1042 16.2166 21.026C16.2383 20.7841 16.257 20.5421 16.2809 20.3007C16.3039 20.0693 16.3338 19.8384 16.3572 19.6071C16.375 19.4341 16.3855 19.2603 16.4024 19.0873C16.4184 18.9211 16.4388 18.7553 16.4571 18.5895C16.4657 18.5113 16.474 18.4331 16.4805 18.3548C16.4957 18.1814 16.507 18.008 16.5243 17.8346C16.5482 17.5965 16.5777 17.3593 16.6016 17.1216C16.6189 16.9486 16.6289 16.7748 16.6463 16.6018C16.6701 16.3671 16.6992 16.1332 16.7231 15.8985C16.7404 15.7289 16.7513 15.5585 16.7678 15.3885C16.7786 15.2756 16.7947 15.1631 16.8086 15.0502C17.5541 14.6898 18.287 14.335 19.036 13.973C19.0278 14.0863 19.0226 14.1806 19.013 14.2745C19.0035 14.3688 18.9861 14.4627 18.977 14.557C18.9605 14.7334 18.9501 14.9106 18.9323 15.0865C18.9089 15.3212 18.8789 15.5555 18.8555 15.7903C18.8382 15.9632 18.8282 16.1366 18.8108 16.3096C18.787 16.5443 18.7579 16.7786 18.734 17.0133C18.7167 17.1863 18.7058 17.3601 18.6889 17.5331C18.6728 17.6993 18.652 17.8651 18.6338 18.0313C18.6251 18.1129 18.6173 18.1945 18.6103 18.2762C18.5891 18.5181 18.5687 18.7596 18.5465 19.0015C18.5279 19.204 18.5075 19.4062 18.4858 19.6083C18.4611 19.8431 18.4324 20.0769 18.4085 20.3117C18.3912 20.4817 18.3808 20.6521 18.3638 20.8217C18.3474 20.9913 18.3261 21.16 18.3079 21.3292C18.2992 21.4074 18.2922 21.4857 18.2853 21.5643C18.264 21.8062 18.2436 22.0482 18.2215 22.2901C18.2024 22.4956 18.1825 22.7011 18.1608 22.9067C18.136 23.138 18.1074 23.3689 18.0839 23.6003C18.0666 23.7698 18.0557 23.9403 18.0392 24.1103C18.0223 24.2828 18.0011 24.4554 17.9824 24.6279C17.9742 24.7028 17.9672 24.7781 17.9607 24.8534C17.9459 25.0263 17.9342 25.2002 17.9169 25.3731C17.8934 25.6045 17.8635 25.8354 17.8405 26.0667C17.8214 26.2562 17.808 26.4461 17.7906 26.6554C17.765 26.6799 17.7307 26.7205 17.689 26.751C16.8441 27.3714 15.9988 27.9906 15.1535 28.6101C14.7859 28.8795 14.4192 29.1494 14.0521 29.4188C14.0365 29.4302 14.0195 29.4403 13.9983 29.4547C13.8642 29.3574 13.7314 29.2618 13.5995 29.1654C13.0431 28.7577 12.4868 28.35 11.9305 27.9419C11.3876 27.5435 10.8452 27.1451 10.3032 26.7459C10.2663 26.7188 10.235 26.6837 10.2142 26.6639C10.189 26.4313 10.1643 26.2164 10.1435 26.0012C10.1265 25.8316 10.1161 25.6611 10.0992 25.4911C10.0827 25.3249 10.061 25.1596 10.0428 24.9933C10.0337 24.9117 10.0276 24.8301 10.0207 24.7481C9.99939 24.5061 9.97899 24.2647 9.95643 24.0228C9.93777 23.8206 9.91737 23.6184 9.89611 23.4163C9.87137 23.1816 9.84273 22.9473 9.81886 22.7126C9.8015 22.543 9.79109 22.3725 9.7746 22.2025C9.75811 22.0329 9.73685 21.8638 9.71819 21.6946C9.70951 21.6164 9.70256 21.5381 9.69562 21.4595C9.67436 21.2175 9.65439 20.9761 9.63183 20.7341C9.60579 20.4567 9.57802 20.1793 9.55068 19.9019C9.53072 19.6997 9.51032 19.4975 9.48993 19.295C9.46259 19.0209 9.43568 18.7473 9.40878 18.4732C9.38187 18.1992 9.35453 17.9251 9.32763 17.6511C9.30072 17.377 9.27338 17.103 9.24648 16.8289C9.22608 16.62 9.20569 16.4111 9.18529 16.2026C9.16489 15.9971 9.1445 15.7915 9.1241 15.5864C9.10414 15.3843 9.08331 15.1821 9.06335 14.9799C9.03601 14.7025 9.00911 14.4255 8.98133 14.1481C8.97569 14.0948 8.96745 14.0436 8.95703 13.9688Z" fill="white"/>
<path d="M19.6955 5.8691C19.6795 6.04334 19.6647 6.19644 19.6508 6.34953C19.6422 6.44427 19.6339 6.53942 19.6278 6.63416C19.6192 6.76526 19.6153 6.89679 19.6044 7.02747C19.5875 7.22666 19.5654 7.42543 19.548 7.62463C19.5367 7.75235 19.5302 7.88007 19.5211 8.01963C18.822 8.39434 18.1199 8.77115 17.4047 9.15431C17.4017 9.11033 17.3956 9.082 17.3982 9.05408C17.416 8.87138 17.4355 8.68911 17.4542 8.50641C17.4624 8.42817 17.4707 8.34993 17.4776 8.27169C17.4928 8.09829 17.5054 7.92489 17.5214 7.75192C17.5305 7.65761 17.5479 7.56373 17.5561 7.46942C17.5614 7.41063 17.557 7.35142 17.557 7.28164C16.7321 6.97291 15.9063 6.66376 15.0653 6.34911C15.0609 6.3969 15.0544 6.43412 15.054 6.47133C15.0535 7.1019 15.0535 7.73247 15.0535 8.36304C15.0535 8.94751 15.0522 9.53198 15.0553 10.116C15.0557 10.1985 15.0305 10.2467 14.9529 10.2865C14.6426 10.4459 14.3358 10.613 14.0277 10.7766C14.019 10.7813 14.009 10.783 13.9943 10.788C13.8016 10.6857 13.6063 10.5825 13.411 10.4785C13.2834 10.4108 13.1585 10.3385 13.0287 10.2759C12.9636 10.2446 12.9432 10.2019 12.9445 10.1355C12.9471 9.98366 12.9454 9.83183 12.9454 9.68C12.9454 8.61679 12.9454 7.55358 12.9454 6.49079C12.9454 6.44892 12.9454 6.40747 12.9454 6.34488C12.097 6.66207 11.269 6.97207 10.4341 7.28418C10.4441 7.42332 10.4519 7.55442 10.4636 7.68468C10.4723 7.78237 10.4892 7.87922 10.4983 7.97692C10.5144 8.14651 10.5257 8.31694 10.543 8.48653C10.5595 8.65274 10.5821 8.81852 10.5994 8.9843C10.6046 9.03294 10.6003 9.08242 10.6003 9.13232C10.5278 9.12302 8.57591 8.08434 8.47697 8.00356C8.46221 7.80733 8.44919 7.60771 8.43227 7.40809C8.41491 7.20552 8.39365 7.00378 8.37542 6.80163C8.36718 6.71028 8.3598 6.61851 8.35372 6.52673C8.34505 6.39563 8.33984 6.2641 8.33029 6.13342C8.32465 6.05222 8.3138 5.97102 8.30469 5.88094C8.34808 5.85979 8.38497 5.83822 8.42446 5.82342C9.18171 5.53922 9.93939 5.25587 10.6975 4.97209C11.5685 4.64644 12.439 4.3208 13.3099 3.99473C13.5395 3.90888 13.7686 3.82303 14.0008 3.73633C15.8963 4.44725 17.7909 5.15649 19.6955 5.8691Z" fill="white"/>
</svg>
