<svg width="33" height="19" viewBox="0 0 33 19" fill="none" xmlns="http://www.w3.org/2000/svg">
<path fill-rule="evenodd" clip-rule="evenodd" d="M14.025 0.0362645C13.3198 0.073267 12.5178 0.175488 12.2069 0.268043C11.8361 0.378465 11.5175 0.561037 11.2511 0.815856C11.0314 1.02616 10.8786 1.24192 10.9114 1.29543C10.9443 1.34893 11.206 1.4614 11.4929 1.54527C11.8542 1.651 12.1069 1.8036 12.3147 2.04163C12.4798 2.23074 12.637 2.48351 12.664 2.6033C12.691 2.72319 12.7572 3.01893 12.8108 3.26056C12.8645 3.5022 12.9351 4.24909 12.9677 4.92031C13.0104 5.79792 12.9833 6.44786 12.8719 7.23429C12.7867 7.83571 12.6448 8.50911 12.5567 8.73066C12.4556 8.98493 12.3067 9.16799 12.1533 9.22664C11.9941 9.28761 11.8018 9.28356 11.5956 9.21516C11.4226 9.15775 11.0437 8.85986 10.7537 8.55322C10.4637 8.24663 10.0587 7.73211 9.8538 7.40993C9.64904 7.08774 8.99685 5.85494 8.40462 4.67047C7.81246 3.4859 7.22302 2.26394 7.09481 1.95484C6.94543 1.59486 6.7387 1.29855 6.51983 1.13072L6.17808 0.868581H3.33941H0.500823L0.250412 1.10524C0.0901673 1.25677 0 1.44646 0 1.63216C0 1.79179 0.245656 2.47609 0.545859 3.15288C0.846064 3.82966 1.47598 5.13588 1.94574 6.05567C2.4155 6.97547 3.12995 8.28226 3.53342 8.95974C3.9368 9.63713 4.49072 10.5321 4.76413 10.9486C5.03764 11.365 5.48537 12.0133 5.75908 12.3892C6.03279 12.765 6.56748 13.4681 6.94738 13.9514C7.32717 14.435 7.99348 15.1668 8.42804 15.5779C8.86243 15.9892 9.66329 16.6218 10.2075 16.9839C10.7517 17.346 11.5931 17.8271 12.0772 18.0527C12.5612 18.2784 13.3722 18.5676 13.8794 18.6953C14.6827 18.8976 15.0328 18.9277 16.5971 18.9289C18.1325 18.9304 18.4381 18.9055 18.7064 18.758C18.879 18.6631 19.0804 18.4654 19.154 18.3186C19.2276 18.1719 19.3152 17.677 19.3487 17.2189C19.3823 16.7607 19.4802 16.1469 19.5665 15.8548C19.6699 15.5045 19.8482 15.1978 20.0899 14.9547C20.344 14.6991 20.542 14.586 20.7349 14.5863C20.888 14.5865 21.1442 14.6673 21.3044 14.7657C21.4646 14.8643 21.9232 15.2924 22.3235 15.7172C22.7239 16.1421 23.4664 16.9118 23.9735 17.4277C24.4807 17.9434 25.0799 18.4599 25.3052 18.5752C25.5303 18.6906 25.9452 18.8411 26.2273 18.9096C26.6102 19.0028 27.4142 19.0202 29.4088 18.9788C31.3643 18.9383 32.1428 18.8886 32.3206 18.7927C32.4541 18.7209 32.6615 18.572 32.7816 18.462C32.9415 18.3155 33 18.1526 33 17.8541C33 17.6043 32.9029 17.261 32.7494 16.968C32.6116 16.705 32.2513 16.1626 31.9487 15.7626C31.6461 15.3627 30.6234 14.265 29.6761 13.3236C28.7288 12.382 27.888 11.4725 27.8077 11.3022C27.7275 11.132 27.6617 10.8632 27.6617 10.7048C27.6617 10.5463 27.7691 10.2137 27.9002 9.96566C28.0315 9.71742 28.7895 8.64549 29.5848 7.58352C30.3802 6.52148 31.3048 5.23518 31.6395 4.72504C31.9743 4.21492 32.4189 3.44606 32.6275 3.01648C32.9383 2.3765 33.0019 2.14902 32.9792 1.75713C32.9563 1.3626 32.9034 1.243 32.6767 1.07371C32.4079 0.873066 32.3293 0.869258 29.0856 0.901484C26.3866 0.928331 25.7278 0.960937 25.5473 1.07693C25.4252 1.15522 25.2416 1.40399 25.139 1.62972C25.0365 1.85544 24.7745 2.45754 24.5567 2.96767C24.3389 3.47779 23.8936 4.37845 23.5675 4.96913C23.2411 5.5598 22.6885 6.48086 22.3393 7.01598C21.9902 7.5511 21.4259 8.26508 21.0855 8.60254C20.6272 9.0568 20.3969 9.21615 20.1987 9.21615C20.0456 9.21615 19.8442 9.12198 19.7285 8.99641C19.6172 8.87556 19.473 8.57908 19.4079 8.33745C19.32 8.01066 19.3056 7.08521 19.3522 4.72504L19.4147 1.552L19.1733 1.03562C18.9865 0.636116 18.8524 0.485763 18.5809 0.371632C18.3879 0.290499 18.0045 0.185935 17.729 0.139169C17.4534 0.0924028 16.7912 0.035288 16.2573 0.0121492C15.7235 -0.0109896 14.719 -5.46549e-05 14.025 0.0362645Z" fill="white"/>
</svg>
