<svg width="90" height="63" viewBox="0 0 90 63" fill="none" xmlns="http://www.w3.org/2000/svg">
<path d="M59.9525 32.4173C51.7006 36.8126 43.7993 40.8534 35.7227 45.0723V19.8339C44.2217 24.4389 53.18 28.6561 59.9876 32.4173H59.9525V32.4173Z" fill="white"/>
<path d="M37.2739 0.0780737C20.1338 0.392617 14.2796 0.675541 10.6813 1.41447C8.24677 1.90542 6.13118 2.99549 4.57997 4.57653C3.38108 5.77313 2.42765 7.59881 1.68795 10.1318C1.05344 12.2421 0.806311 13.9979 0.453991 18.2866C-0.0853424 27.9659 -0.213914 35.8794 0.453991 44.7216C1.00501 49.6045 1.27217 55.401 4.93229 58.7828C6.6605 60.3655 8.67089 61.384 10.9284 61.8051C14.4549 62.4724 29.4795 63 45.0333 63C60.5521 63 75.61 62.4724 79.1399 61.8051C81.9601 61.2775 84.605 59.6965 86.1579 57.6578C89.4974 52.422 89.5558 45.9115 89.8948 40.8189C90.0351 38.3924 90.0351 24.6141 89.8948 22.1876C89.3672 14.1393 88.943 11.2918 87.7441 8.3394C87.0028 6.47544 86.3699 5.49188 85.2746 4.40179C83.5567 2.7243 81.3666 1.60849 78.9963 1.2031C64.1638 0.0913792 51.5687 -0.149928 37.2739 0.0780737V0.0780737ZM59.9877 32.4178C51.7357 36.813 43.8344 40.8888 35.7578 45.1077V19.8677C44.2569 24.4726 53.2168 28.6915 60.0228 32.4527L59.9877 32.4178Z" fill="#CD201F"/>
</svg>
