<svg width="161" height="18" viewBox="0 0 161 18" fill="none" xmlns="http://www.w3.org/2000/svg">
<path d="M76.8865 8.86385C76.0606 10.9123 75.2355 12.9599 74.4079 15.0125C73.8551 15.0125 73.3287 15.0125 72.7453 15.0125C71.9211 12.9707 71.0902 10.9107 70.2585 8.85067C70.2247 8.85809 70.1917 8.86469 70.1578 8.8721C70.1578 11.9015 70.1578 14.9309 70.1578 17.985C69.0893 17.985 68.0687 17.985 67.0117 17.985C67.0117 12.0078 67.0117 6.02241 67.0117 0.00976562C67.9961 0.00976562 68.9689 0.00976562 69.9821 0.00976562C71.1636 2.92871 72.3468 5.85259 73.5754 8.88859C74.7974 5.86743 75.9764 2.95426 77.1654 0.0147064C78.1415 0.0147064 79.1143 0.0147064 80.0838 0.0147064C80.1869 0.362572 80.2331 17.0173 80.1324 17.9768C79.1192 17.9768 78.1027 17.9768 77.0078 17.9768C77.0078 14.9441 77.0078 11.913 77.0078 8.882C76.9682 8.8754 76.9269 8.86962 76.8865 8.86385Z" fill="black"/>
<path d="M100.191 8.10887C100.191 11.3847 100.191 14.6606 100.191 17.9736C99.1167 17.9736 98.0556 17.9736 96.9648 17.9736C96.9648 12.0055 96.9648 6.03322 96.9648 0.0222261C97.9038 0.0222261 98.8411 0.0222261 99.8131 0.0222261C101.489 3.34097 103.17 6.67124 104.851 10.0015C104.882 9.99328 104.915 9.98586 104.946 9.97761C104.946 6.66794 104.946 3.35745 104.946 0.015625C106.026 0.015625 107.058 0.015625 108.129 0.015625C108.129 5.99941 108.129 11.9717 108.129 17.9777C107.198 17.9777 106.258 17.9777 105.283 17.9777C103.623 14.6886 101.954 11.3847 100.286 8.08166C100.254 8.09073 100.222 8.0998 100.191 8.10887Z" fill="black"/>
<path d="M26.8797 0.0078125C29.8608 0.0078125 32.8262 0.0078125 35.7487 0.0078125C36.5185 0.771964 37.2669 1.51468 38.0565 2.2978C38.0565 4.42373 38.0565 6.61232 38.0565 8.83883C37.3321 9.5527 36.592 10.2822 35.8197 11.0439C36.7553 13.3594 37.6828 15.6535 38.6258 17.9864C37.3841 17.9864 36.1943 17.9864 34.9748 17.9864C34.0837 15.6989 33.1901 13.4039 32.2899 11.0942C31.5655 11.0942 30.8592 11.0942 30.1116 11.0942C30.1116 13.4064 30.1116 15.684 30.1116 17.9864C29.0184 17.9864 27.9664 17.9864 26.8789 17.9864C26.8797 12.0042 26.8797 6.01881 26.8797 0.0078125ZM34.7734 3.14685C33.8799 3.04545 30.4582 3.08502 30.1471 3.19054C30.1471 4.70648 30.1471 6.21994 30.1471 7.74577C31.7041 7.74577 33.2305 7.74577 34.7734 7.74577C34.7734 6.19851 34.7734 4.68422 34.7734 3.14685Z" fill="black"/>
<path d="M24.0518 15.7337C23.2903 16.4946 22.5551 17.229 21.7853 17.9981C19.6037 17.9981 17.3669 17.9981 15.1581 17.9981C14.399 17.2381 13.6539 16.4913 12.8594 15.6958C12.8594 11.2609 12.8594 6.74443 12.8594 2.24031C13.6061 1.49924 14.3429 0.766409 15.1111 0.00390625C17.3067 0.00390625 19.5427 0.00390625 21.7275 0.00390625C22.4998 0.773828 23.2457 1.51738 24.0518 2.3211C24.0518 6.74114 24.0518 11.2576 24.0518 15.7337ZM20.7696 3.13635C19.197 3.13635 17.6821 3.13635 16.1433 3.13635C16.1433 7.05108 16.1433 10.937 16.1433 14.8327C17.7019 14.8327 19.2291 14.8327 20.7696 14.8327C20.7696 10.9221 20.7696 7.04696 20.7696 3.13635Z" fill="black"/>
<path d="M91.8358 18C89.6789 18 87.4413 18 85.2407 18C84.4701 17.2358 83.7209 16.4931 82.9453 15.724C82.9453 11.2603 82.9453 6.75783 82.9453 2.29245C83.7102 1.53077 84.4561 0.787232 85.2465 0C87.4116 0 89.6476 0 91.8333 0C92.613 0.772394 93.3622 1.51428 94.146 2.28997C94.146 6.74051 94.146 11.2422 94.146 15.6935C93.3721 16.4651 92.627 17.2095 91.8358 18ZM86.2333 3.13327C86.2333 7.04635 86.2333 10.9322 86.2333 14.8321C87.7903 14.8321 89.3176 14.8321 90.844 14.8321C90.844 10.9133 90.844 7.02739 90.844 3.13327C89.2911 3.13327 87.7763 3.13327 86.2333 3.13327Z" fill="black"/>
<path d="M56.7741 14.8643C59.4128 14.8643 62.0217 14.8643 64.6678 14.8643C64.6678 15.9145 64.6678 16.9301 64.6678 17.9786C60.9466 17.9786 57.223 17.9786 53.4688 17.9786C53.4688 12.008 53.4688 6.03495 53.4688 0.0214844C57.1916 0.0214844 60.9128 0.0214844 64.6703 0.0214844C64.6703 1.02634 64.6703 2.02789 64.6703 3.08385C62.0547 3.08385 59.435 3.08385 56.7766 3.08385C56.7766 4.52642 56.7766 5.91459 56.7766 7.36211C58.5415 7.36211 60.303 7.36211 62.0935 7.36211C62.0935 8.47 62.0935 9.52103 62.0935 10.6223C60.3402 10.6223 58.5753 10.6223 56.7741 10.6223C56.7741 12.0443 56.7741 13.4176 56.7741 14.8643Z" fill="black"/>
<path d="M153.089 7.36698C154.87 7.36698 156.622 7.36698 158.408 7.36698C158.408 8.46745 158.408 9.52918 158.408 10.6404C156.641 10.6404 154.876 10.6404 153.086 10.6404C153.086 12.0656 153.086 13.4406 153.086 14.8684C155.733 14.8684 158.352 14.8684 160.999 14.8684C160.999 15.9359 160.999 16.9514 160.999 17.9901C157.26 17.9901 153.547 17.9901 149.797 17.9901C149.797 12.0104 149.797 6.02497 149.797 0.015625C153.53 0.015625 157.252 0.015625 161.001 0.015625C161.001 1.04933 161.001 2.05089 161.001 3.1052C158.358 3.1052 155.738 3.1052 153.089 3.1052C153.089 4.54695 153.089 5.93677 153.089 7.36698Z" fill="black"/>
<path d="M137.934 17.9912C137.179 17.237 136.444 16.5017 135.684 15.7425C135.684 11.2557 135.684 6.73836 135.684 2.24743C136.439 1.49812 137.175 0.766104 137.945 0.00195312C140.137 0.00195312 142.374 0.00195312 144.564 0.00195312C145.335 0.771874 146.08 1.51707 146.874 2.31007C146.874 2.50378 146.874 2.77664 146.874 3.10637C144.23 3.10637 141.612 3.10637 138.967 3.10637C138.967 6.97576 138.967 10.7899 138.967 14.642C140.549 14.642 142.125 14.642 143.751 14.642C143.751 12.4353 143.751 10.222 143.751 7.97237C144.814 7.97237 145.828 7.97237 146.87 7.97237C146.87 11.3076 146.87 14.6255 146.87 17.9772C146.629 17.9772 146.387 17.9772 146.11 17.9772C145.36 17.4917 144.58 16.9864 143.805 16.4852C143.292 17.021 142.801 17.5346 142.364 17.9912C140.807 17.9912 139.378 17.9912 137.934 17.9912Z" fill="black"/>
<path d="M134.341 17.9935C133.283 17.9935 132.259 17.9935 131.173 17.9935C130.758 16.5575 130.337 15.1059 129.912 13.6378C128.416 13.6378 126.944 13.6378 125.408 13.6378C125.039 15.0704 124.666 16.5196 124.288 17.9869C123.2 17.9869 122.132 17.9869 121.008 17.9869C122.725 11.985 124.437 6.00037 126.152 0.00585938C127.169 0.00585938 128.144 0.00585938 129.165 0.00585938C130.888 5.99459 132.611 11.9809 134.341 17.9935ZM126.269 10.61C127.223 10.61 128.099 10.61 129.022 10.61C128.576 8.8616 128.14 7.15195 127.704 5.44312C127.673 5.44229 127.643 5.44148 127.613 5.44148C127.168 7.15196 126.723 8.86243 126.269 10.61Z" fill="black"/>
<path d="M3.23439 18.0002C2.11803 18.0002 1.07758 18.0002 0 18.0002C0 12.0106 0 6.02518 0 0.0117188C3.64199 0.0117188 7.27407 0.0117188 10.9441 0.0117188C10.9441 1.02811 10.9441 2.04204 10.9441 3.10294C8.38795 3.10294 5.845 3.10294 3.26904 3.10294C3.26904 4.58344 3.26904 6.01612 3.26904 7.49249C4.97947 7.49249 6.66845 7.49249 8.39373 7.49249C8.39373 8.59543 8.39373 9.65551 8.39373 10.7815C6.67835 10.7815 4.977 10.7815 3.23521 10.7815C3.23439 13.2158 3.23439 15.5865 3.23439 18.0002Z" fill="black"/>
<path d="M43.7697 14.8649C46.3011 14.8649 48.7979 14.8649 51.3293 14.8649C51.3293 15.1913 51.3293 15.479 51.3293 15.7387C50.5858 16.4855 49.8523 17.2216 49.0825 17.9957C47.0115 17.9957 44.8844 17.9957 42.7837 17.9957C42.0271 17.2381 41.2829 16.4921 40.4883 15.6958C40.4883 11.2609 40.4883 6.74443 40.4883 2.24526C41.2358 1.50171 41.9726 0.769706 42.7425 0.00390625C44.8242 0.00390625 46.9513 0.00390625 49.0223 0.00390625C49.7962 0.7763 50.5413 1.5215 51.3425 2.32027C51.3425 2.49668 51.3425 2.77035 51.3425 3.10338C48.8135 3.10338 46.3061 3.10338 43.7705 3.10338C43.7697 7.03707 43.7697 10.9122 43.7697 14.8649Z" fill="black"/>
<path d="M114.582 3.14395C112.984 3.14395 111.48 3.14395 109.941 3.14395C109.941 2.1086 109.941 1.07818 109.941 0.015625C114.121 0.015625 118.292 0.015625 122.502 0.015625C122.502 1.02955 122.502 2.03028 122.502 3.08789C120.981 3.08789 119.451 3.08789 117.874 3.08789C117.874 8.07425 117.874 13.0054 117.874 17.9736C116.765 17.9736 115.703 17.9736 114.582 17.9736C114.582 13.0441 114.582 8.10145 114.582 3.14395Z" fill="black"/>
</svg>
