<svg width="102" height="60" viewBox="0 0 102 60" fill="none" xmlns="http://www.w3.org/2000/svg">
<path d="M43.7991 22.1304C43.6941 22.1349 43.5848 22.1393 43.4754 22.1393C40.2213 22.1393 37.584 19.4731 37.584 16.1836C37.584 14.1143 38.6249 12.2927 40.2082 11.2227C40.077 11.9212 40.0114 12.6419 40.0114 13.3759C40.0114 16.8379 41.4679 19.9506 43.7991 22.1304Z" stroke="white" stroke-miterlimit="10" stroke-linecap="round" stroke-linejoin="round"/>
<path d="M57.7035 13.3756C57.7035 14.6092 57.3317 15.7588 56.6931 16.7094C56.4044 15.3918 55.9759 14.1317 55.416 12.9423C55.5866 11.8591 56.0458 10.8731 56.715 10.0684C57.3405 11.0146 57.7035 12.1509 57.7035 13.3756Z" stroke="white" stroke-miterlimit="10" stroke-linecap="round" stroke-linejoin="round"/>
<path d="M67.1262 13.8979C67.1262 17.0195 64.7469 19.5839 61.7246 19.836C62.9186 17.9745 63.6097 15.7549 63.6097 13.3762C63.6097 11.4617 63.1636 9.65331 62.3719 8.05273C65.0793 8.59215 67.1262 11.0018 67.1262 13.8979Z" stroke="white" stroke-miterlimit="10" stroke-linecap="round" stroke-linejoin="round"/>
<path d="M57.7086 13.3762C57.7086 14.6098 57.3368 15.7593 56.6982 16.7099C56.4095 15.3923 55.9809 14.1322 55.4211 12.9429C54.4501 10.8559 53.0942 8.99005 51.4453 7.42927C51.5678 7.42042 51.6903 7.41602 51.8127 7.41602C53.8597 7.41602 55.6616 8.46833 56.7201 10.0689C57.3455 11.0151 57.7086 12.1514 57.7086 13.3762Z" stroke="white" stroke-miterlimit="10" stroke-linecap="round" stroke-linejoin="round"/>
<path d="M57.7086 13.3762C57.7086 14.6098 57.3368 15.7593 56.6982 16.7099C56.4095 15.3923 55.9809 14.1322 55.4211 12.9429C54.4501 10.8559 53.0942 8.99005 51.4453 7.42927C51.5678 7.42042 51.6903 7.41602 51.8127 7.41602C53.8597 7.41602 55.6616 8.46833 56.7201 10.0689C57.3455 11.0151 57.7086 12.1514 57.7086 13.3762Z" stroke="white" stroke-miterlimit="10" stroke-linecap="round" stroke-linejoin="round"/>
<path d="M63.6105 13.3769C63.6105 15.7557 62.9194 17.9753 61.7254 19.8367C61.5636 19.85 61.3974 19.8588 61.2312 19.8588C59.5342 19.8588 58.0033 19.1293 56.9274 17.9664C56.8662 17.542 56.7874 17.1219 56.6956 16.7107C57.3341 15.7601 57.7059 14.6105 57.7059 13.3769C57.7059 12.1522 57.3429 11.0159 56.7175 10.0697C55.659 8.46909 53.8571 7.41678 51.8101 7.41678C51.6877 7.41678 51.5652 7.42119 51.4427 7.43003C51.1803 7.44329 50.9222 7.47868 50.6685 7.52732C48.7485 7.90756 47.1608 9.23843 46.3998 11.0114C46.0892 11.7366 45.9187 12.5368 45.9187 13.3769C45.9187 15.1322 46.671 16.7107 47.865 17.7984C48.1755 18.0858 48.5167 18.3378 48.8841 18.5456C48.6917 19.001 48.4467 19.4255 48.1493 19.8102C47.1345 21.1455 45.5688 22.0342 43.7974 22.1314C41.4662 19.9517 40.0098 16.8389 40.0098 13.3769C40.0098 12.643 40.0754 11.9223 40.2066 11.2237C40.7752 8.05347 42.5815 5.32099 45.1051 3.56124C47.0121 2.22153 49.3215 1.44336 51.8101 1.44336C53.529 1.44336 55.1604 1.81476 56.6344 2.48682C59.1274 3.6143 61.1568 5.59071 62.3727 8.05347C63.1644 9.65405 63.6105 11.4624 63.6105 13.3769Z" stroke="white" stroke-miterlimit="10" stroke-linecap="round" stroke-linejoin="round"/>
<path d="M57.7086 13.3762C57.7086 14.6098 57.3368 15.7593 56.6982 16.7099C56.4095 15.3923 55.9809 14.1322 55.4211 12.9429C54.4501 10.8559 53.0942 8.99005 51.4453 7.42927C51.5678 7.42042 51.6903 7.41602 51.8127 7.41602C53.8597 7.41602 55.6616 8.46833 56.7201 10.0689C57.3455 11.0151 57.7086 12.1514 57.7086 13.3762Z" stroke="white" stroke-miterlimit="10" stroke-linecap="round" stroke-linejoin="round"/>
<path d="M96.4958 50.211C90.495 56.2817 80.6672 56.2817 74.6664 50.211L54.5996 29.9253C55.6318 28.1832 56.3797 26.2511 56.7821 24.1951C57.0052 23.0499 57.1233 21.8694 57.1233 20.6579C57.1233 19.7427 57.0577 18.8451 56.9265 17.9652C58.0024 19.1281 59.5333 19.8576 61.2303 19.8576C61.3965 19.8576 61.5626 19.8487 61.7245 19.8355C64.7467 19.5835 67.1261 17.019 67.1261 13.8974C67.1261 11.0014 65.0791 8.59168 62.3718 8.05226C61.1559 5.5895 59.1265 3.61309 56.6335 2.48561C58.7154 1.4952 60.9722 1 63.2334 1C67.1916 1 71.1455 2.51656 74.1503 5.54969L96.4958 28.1435C102.501 34.2097 102.501 44.1404 96.4958 50.211Z" stroke="white" stroke-miterlimit="10" stroke-linecap="round" stroke-linejoin="round"/>
<path d="M67.1262 13.8979C67.1262 17.0195 64.7469 19.5839 61.7246 19.836C62.9186 17.9745 63.6097 15.7549 63.6097 13.3762C63.6097 11.4617 63.1636 9.65331 62.3719 8.05273C65.0793 8.59215 67.1262 11.0018 67.1262 13.8979Z" stroke="white" stroke-miterlimit="10" stroke-linecap="round" stroke-linejoin="round"/>
<path d="M57.124 20.6582C57.124 21.8697 57.0059 23.0502 56.7828 24.1954C56.3804 26.2513 55.6325 28.1835 54.6003 29.9256C51.4775 35.2181 45.7566 38.7597 39.2179 38.7597C37.5034 38.7597 34.4723 38.2556 34.4723 38.2556L30.2517 42.5224L28.2879 40.5371L22.3921 46.4929H17.4453V51.4228L15.8795 53.0057L11.7682 51.9357L10.3862 53.3329L11.4752 57.2326L9.7301 59.0012H1L1 50.5385L19.5928 31.7428L17.5897 29.7222L21.8103 25.4555C21.8103 25.4555 21.3118 22.3914 21.3118 20.6582C21.3118 10.6612 29.3288 2.55664 39.2179 2.55664C41.2779 2.55664 43.2592 2.91034 45.1049 3.5603C42.5813 5.32005 40.7749 8.05253 40.2064 11.2227C38.6231 12.2927 37.5821 14.1144 37.5821 16.1836C37.5821 19.4732 40.2195 22.1394 43.4735 22.1394C43.5829 22.1394 43.6922 22.1349 43.7972 22.1305C45.5686 22.0332 47.1343 21.1445 48.1491 19.8092C48.4465 19.4246 48.6915 19.0001 48.8839 18.5447C48.5165 18.3369 48.1753 18.0849 47.8648 17.7975C46.6708 16.7098 45.9185 15.1313 45.9185 13.376C45.9185 12.5359 46.089 11.7356 46.3996 11.0105C47.1606 9.23749 48.7483 7.90662 50.6683 7.52638C50.922 7.47774 51.1801 7.44236 51.4425 7.42909C53.0914 8.98987 54.4473 10.8557 55.4183 12.9427C55.9781 14.1321 56.4067 15.3922 56.6954 16.7098C56.7872 17.121 56.866 17.541 56.9272 17.9655C57.0584 18.8454 57.124 19.7429 57.124 20.6582Z" stroke="white" stroke-miterlimit="10" stroke-linecap="round" stroke-linejoin="round"/>
<path d="M43.7991 22.1304C43.6941 22.1349 43.5848 22.1393 43.4754 22.1393C40.2213 22.1393 37.584 19.4731 37.584 16.1836C37.584 14.1143 38.6249 12.2927 40.2082 11.2227C40.077 11.9212 40.0114 12.6419 40.0114 13.3759C40.0114 16.8379 41.4679 19.9506 43.7991 22.1304Z" stroke="white" stroke-miterlimit="10" stroke-linecap="round" stroke-linejoin="round"/>
<path d="M83.9105 25.5918L81.9948 27.5328L86.1718 31.7553L78.2728 39.7405L74.0958 35.518L72.1758 37.4546L72.2326 25.6493L83.9105 25.5918Z" stroke="white" stroke-miterlimit="10" stroke-linecap="round" stroke-linejoin="round"/>
<path d="M74.0957 35.5203L81.9947 27.5352" stroke="white" stroke-miterlimit="10" stroke-linecap="round" stroke-linejoin="round"/>
<path d="M3.97852 53.1077L22.7332 34.1484" stroke="white" stroke-miterlimit="10" stroke-linecap="round" stroke-linejoin="round"/>
</svg>
