<svg width="85" height="60" viewBox="0 0 85 60" fill="none" xmlns="http://www.w3.org/2000/svg">
<path d="M32.2834 3.46484H24.6035V20.0693H32.2834V3.46484Z" stroke="white" stroke-miterlimit="10" stroke-linecap="round" stroke-linejoin="round"/>
<path d="M29.6915 20.1055H27.2051V30.8711H29.6915V20.1055Z" stroke="white" stroke-miterlimit="10" stroke-linecap="round" stroke-linejoin="round"/>
<path d="M35.8227 30.8711H21.0645V33.3749H35.8227V30.8711Z" stroke="white" stroke-miterlimit="10" stroke-linecap="round" stroke-linejoin="round"/>
<path d="M30.4553 58.9999H26.4349C24.677 58.9999 23.25 57.5629 23.25 55.7928V33.373H33.6402V55.7928C33.6402 57.5629 32.2132 58.9999 30.4553 58.9999Z" stroke="white" stroke-miterlimit="10" stroke-linecap="round" stroke-linejoin="round"/>
<path d="M17.2461 6.72964L15.1306 8.3147C14.3152 8.92718 13.834 9.88966 13.834 10.9127V12.6257C13.834 13.6487 14.3152 14.6112 15.1306 15.2237L17.2461 16.8087C18.1017 17.4482 19.1377 17.7948 20.2005 17.7948H24.6018V5.74023H20.2005C19.1344 5.7436 18.0983 6.09023 17.2461 6.72964Z" stroke="white" stroke-miterlimit="10" stroke-linecap="round" stroke-linejoin="round"/>
<path d="M32.2835 3.4062V1H61.2985C65.2822 1 68.8314 3.53745 70.1448 7.32679L83.7466 46.5865C84.7592 49.5076 82.6069 52.56 79.5357 52.56H66.258C64.958 52.56 63.9052 51.4999 63.9052 50.1908V48.562C63.9052 47.2529 64.958 46.1928 66.258 46.1928C67.1971 46.1928 67.8521 45.2505 67.528 44.3621L60.6702 25.9774H36.8018C36.8018 25.9774 35.1442 26.0548 33.6403 25.0115C31.6853 23.6587 32.2835 20.0174 32.2835 20.0174V3.4062Z" stroke="white" stroke-miterlimit="10" stroke-linecap="round" stroke-linejoin="round"/>
<path d="M13.8366 10.7246H1V12.8145H13.8366V10.7246Z" stroke="white" stroke-miterlimit="10" stroke-linecap="round" stroke-linejoin="round"/>
<path d="M37.0293 6.76172H45.4611" stroke="white" stroke-miterlimit="10" stroke-linecap="round" stroke-linejoin="round"/>
<path d="M37.0293 9.93945H45.4611" stroke="white" stroke-miterlimit="10" stroke-linecap="round" stroke-linejoin="round"/>
<path d="M37.0293 13.1133H45.4611" stroke="white" stroke-miterlimit="10" stroke-linecap="round" stroke-linejoin="round"/>
<path d="M37.0293 16.291H45.4611" stroke="white" stroke-miterlimit="10" stroke-linecap="round" stroke-linejoin="round"/>
<path d="M53.4434 25.9707L54.5896 29.723C55.2513 31.8903 57.2398 33.371 59.4923 33.371H63.4325" stroke="white" stroke-miterlimit="10" stroke-linecap="round" stroke-linejoin="round"/>
</svg>
