<svg width="62" height="74" viewBox="0 0 62 74" fill="none" xmlns="http://www.w3.org/2000/svg">
<path d="M61.0005 19.4795V64.5305C61.0005 69.1892 57.1593 73.0009 52.4645 73.0009L21.4012 72.997C16.7064 72.997 12.8652 69.1853 12.8652 64.5266V63.1983C19.4185 63.1983 24.7341 57.9274 24.7341 51.4244C24.7341 44.9215 19.4185 39.6506 12.8652 39.6506V9.47287C12.8652 8.31397 13.1019 7.20896 13.5326 6.20406C13.5597 6.13476 13.5908 6.0693 13.6218 6C14.7121 8.41021 16.916 10.2313 19.5776 10.8127C20.1635 10.9398 20.7765 11.0091 21.4012 11.0091H52.4645C57.1593 11.0091 61.0005 14.8208 61.0005 19.4795Z" stroke="white" stroke-miterlimit="10" stroke-linecap="round" stroke-linejoin="round"/>
<path d="M13.623 5.99753C14.9616 3.05599 17.9531 1 21.4025 1H23.8236V11.0066H21.4025C20.7778 11.0066 20.1648 10.9373 19.5789 10.8103C16.9172 10.2289 14.7133 8.40774 13.623 5.99753Z" stroke="white" stroke-miterlimit="10"/>
<path d="M13.623 5.99753C14.9616 3.05599 17.9531 1 21.4025 1H23.8236V11.0066H21.4025C20.7778 11.0066 20.1648 10.9373 19.5789 10.8103C16.9172 10.2289 14.7133 8.40774 13.623 5.99753Z" stroke="white" stroke-miterlimit="10"/>
<path d="M13.623 5.99753C14.9616 3.05599 17.9531 1 21.4025 1H23.8236V11.0066H21.4025C20.7778 11.0066 20.1648 10.9373 19.5789 10.8103C16.9172 10.2289 14.7133 8.40774 13.623 5.99753Z" stroke="white" stroke-miterlimit="10" stroke-linecap="round" stroke-linejoin="round"/>
<path d="M19.9727 22.9043H53.8955" stroke="white" stroke-miterlimit="10" stroke-linecap="round" stroke-linejoin="round"/>
<path d="M19.9727 30.4707H53.8955" stroke="white" stroke-miterlimit="10" stroke-linecap="round" stroke-linejoin="round"/>
<path d="M19.9727 38.0293H53.8955" stroke="white" stroke-miterlimit="10" stroke-linecap="round" stroke-linejoin="round"/>
<path d="M23.375 45.9805H53.8951" stroke="white" stroke-miterlimit="10" stroke-linecap="round" stroke-linejoin="round"/>
<path d="M33.082 56.6035H53.8983" stroke="white" stroke-miterlimit="10" stroke-linecap="round" stroke-linejoin="round"/>
<path d="M46.8457 61.4961H53.8996" stroke="white" stroke-miterlimit="10" stroke-linecap="round" stroke-linejoin="round"/>
<path d="M24.7339 51.4184C24.7339 57.9213 19.4184 63.1922 12.8651 63.1922C6.31175 63.1922 1 57.9213 1 51.4184C1 44.9154 6.31175 39.6445 12.8651 39.6445C19.4184 39.6445 24.7339 44.9154 24.7339 51.4184Z" stroke="white" stroke-miterlimit="10" stroke-linecap="round" stroke-linejoin="round"/>
<path d="M8.66797 51.6312L11.7525 54.5343L17.0642 48.3047" stroke="white" stroke-miterlimit="10" stroke-linecap="round" stroke-linejoin="round"/>
</svg>
