<svg width="126" height="66" viewBox="0 0 126 66" fill="none" xmlns="http://www.w3.org/2000/svg">
<path d="M97.0254 12.353V29.6122L83 23.9349V6.67578L88.6919 8.9806L97.0254 12.353Z" stroke="white" stroke-miterlimit="10" stroke-linecap="round" stroke-linejoin="round"/>
<path d="M111.053 6.67578V23.9349L97.0234 29.6122V12.353L111.053 6.67578Z" stroke="white" stroke-miterlimit="10" stroke-linecap="round" stroke-linejoin="round"/>
<path d="M111.055 6.67724L97.0254 12.3545L88.6919 8.98206L83 6.67724L90.6085 3.59773L97.0254 1L111.055 6.67724Z" stroke="white" stroke-miterlimit="10" stroke-linecap="round" stroke-linejoin="round"/>
<path d="M111.025 35.353V52.6122L97 46.9349V29.6758L102.692 31.9806L111.025 35.353Z" stroke="white" stroke-miterlimit="10" stroke-linecap="round" stroke-linejoin="round"/>
<path d="M125.053 29.6758V46.9349L111.023 52.6122V35.353L125.053 29.6758Z" stroke="white" stroke-miterlimit="10" stroke-linecap="round" stroke-linejoin="round"/>
<path d="M125.055 29.6772L111.025 35.3545L102.692 31.9821L97 29.6772L104.608 26.5977L111.025 24L125.055 29.6772Z" stroke="white" stroke-miterlimit="10" stroke-linecap="round" stroke-linejoin="round"/>
<path d="M83.0254 35.3535V52.6127" stroke="white" stroke-miterlimit="10" stroke-linecap="round" stroke-linejoin="round"/>
<path d="M97.0526 29.6758V46.9349L83.0234 52.6122V35.353L97.0526 29.6758Z" stroke="white" stroke-miterlimit="10" stroke-linecap="round" stroke-linejoin="round"/>
<path d="M83.0254 35.3545L97.0546 29.6772L83.0254 24" stroke="white" stroke-miterlimit="10" stroke-linecap="round" stroke-linejoin="round"/>
<path fill-rule="evenodd" clip-rule="evenodd" d="M21.08 7.71262C20.6164 8.09492 20.2368 8.58947 20.2368 8.81137C20.2368 9.03364 20.076 9.21516 19.8797 9.21516C19.6833 9.21516 19.1972 9.94162 18.8 10.8296C18.4028 11.7176 17.7844 13.5928 17.4261 14.9972C16.9382 16.9094 16.8329 18.3097 17.0064 20.5758C17.1342 22.2395 17.3313 23.8409 17.4453 24.1343C17.5989 24.5303 16.7834 24.9678 14.2823 25.831C12.4288 26.4707 9.87969 27.5925 8.61788 28.3237C7.35608 29.0546 5.43059 30.5357 4.3393 31.6144C3.21765 32.7228 1.84267 34.6151 1.17748 35.965C0.332033 37.6806 0 38.8816 0 40.2244C0 41.4347 0.198246 42.2571 0.562134 42.5557C0.871307 42.8094 1.12427 43.2444 1.12427 43.5226C1.12427 43.8008 1.79546 44.4472 2.6158 44.9588C3.43614 45.4708 4.3333 45.8897 4.60912 45.8897C5.01461 45.8897 5.04309 46.405 4.75752 48.5755C4.52218 50.3659 4.54092 52.363 4.81374 54.5661C5.03859 56.3839 5.41934 57.9912 5.65956 58.1379C5.89978 58.2846 7.12786 58.6032 8.38853 58.8459C9.64921 59.0885 11.861 59.5156 13.3038 59.795C14.7466 60.0743 17.6135 60.5603 19.6747 60.8752C21.7358 61.1897 25.193 61.6868 27.3572 61.9795C29.5214 62.2722 33.5687 62.7686 36.3513 63.0823C39.1339 63.3965 44.1088 63.9029 47.4066 64.2078C50.7045 64.5123 57.4624 65.0405 62.4246 65.381L71.4461 66L72.824 64.6382C73.5818 63.8892 74.2016 63.2205 74.2016 63.1523C74.2016 63.0842 75.4848 61.7146 77.0532 60.1084C78.6215 58.5025 80.8262 56.156 81.9523 54.8939L84 52.5993L83.979 32.5061C83.967 21.1288 83.8115 12.2688 83.6204 12.0799C83.4352 11.8969 81.198 11.6086 78.6489 11.4401C76.0998 11.2715 71.9063 10.9529 69.3298 10.7325C66.7534 10.5117 61.5255 10.0839 57.7124 9.78121C53.8992 9.47892 47.4066 8.96919 43.2843 8.64875C39.162 8.32831 33.0909 7.82264 29.7931 7.5248C26.4952 7.22733 23.3754 6.99135 22.8601 7.00024C22.3448 7.0095 21.5436 7.32994 21.08 7.71262ZM28.6688 8.81841C31.3483 9.0329 36.7448 9.4604 40.661 9.76862C44.5772 10.0772 50.9855 10.5836 54.9017 10.8944C58.8179 11.2056 63.9614 11.632 66.3318 11.842C68.7021 12.0524 72.8885 12.3651 75.6343 12.5374C78.3805 12.7096 80.7134 12.9356 80.8187 13.0393C80.9236 13.1434 80.6643 13.5698 80.2416 13.9877C79.8192 14.4052 79.0723 15.5443 78.5814 16.519C78.0905 17.4936 77.4946 19.4892 77.2574 20.9532C76.9497 22.8507 76.9347 24.4466 77.2049 26.51C77.4133 28.1022 77.6707 29.9318 77.7772 30.5764C77.9574 31.6663 77.8724 31.7782 76.5547 32.1786C75.776 32.4157 74.5483 32.8888 73.8269 33.23C73.1055 33.5708 71.9006 34.3087 71.1496 34.8688C70.1153 35.6405 69.3617 35.8876 68.0422 35.8876C67.0843 35.8876 64.1574 35.6494 61.5379 35.3586C58.9187 35.0678 53.9929 34.5625 50.592 34.2357C47.1911 33.909 41.879 33.3911 38.7872 33.0848C35.6955 32.7784 30.9683 32.2835 28.2821 31.9849C25.5962 31.6863 22.7878 31.4422 22.0416 31.4422C20.6884 31.4422 20.6828 31.4355 19.9546 28.9416C19.5533 27.5662 19.0308 25.2294 18.794 23.7483C18.5568 22.2676 18.363 20.1838 18.363 19.1177C18.363 18.0519 18.5946 16.0863 18.8772 14.7501C19.1601 13.4135 19.6237 11.935 19.9078 11.4645C20.1918 10.9937 20.92 10.0439 21.526 9.35371C22.1661 8.62467 22.8728 8.1679 23.2124 8.26385C23.5339 8.35461 25.9893 8.60429 28.6688 8.81841ZM37.739 14.3089C37.0023 15.8922 36.9202 16.6812 36.9194 22.1809C36.9191 25.5428 37.0502 28.7635 37.211 29.3384C37.3721 29.9148 37.7072 30.3138 37.9579 30.2282C38.2078 30.143 38.378 29.5896 38.336 28.9979C38.294 28.4067 38.2318 25.4224 38.1977 22.3661C38.143 17.4855 38.2281 16.6108 38.8959 15.1776C39.3137 14.28 39.569 13.3216 39.4625 13.0475C39.3561 12.7733 39.1091 12.5492 38.9135 12.5492C38.7179 12.5492 38.1891 13.3412 37.739 14.3089ZM82.4463 23.0774V32.4939L80.984 31.926C79.7248 31.437 79.455 31.1214 79.0382 29.6507C78.7722 28.7116 78.5548 26.1047 78.5552 23.858C78.5559 20.2568 78.6695 19.5315 79.5134 17.7355C80.04 16.6149 80.873 15.2498 81.3647 14.7019C81.8564 14.1544 82.3012 13.6958 82.3526 13.6832C82.4039 13.6709 82.4463 17.8981 82.4463 23.0774ZM58.0354 15.6054C57.7866 16.0637 57.365 17.4392 57.0985 18.6616C56.8325 19.8841 56.6162 22.3013 56.6188 24.0332C56.6211 25.765 56.8261 28.2519 57.0742 29.5595C57.3223 30.8672 57.706 31.9964 57.9271 32.069C58.2044 32.1601 58.3206 29.99 58.3019 25.0608C58.2783 18.9258 58.3667 17.754 58.9303 16.7353C59.2912 16.0829 59.5862 15.3746 59.5862 15.1609C59.5862 14.9468 59.3392 14.7719 59.0371 14.7719C58.7355 14.7719 58.2846 15.1472 58.0354 15.6054ZM18.3117 28.2007C18.5868 29.2706 18.8993 30.5205 19.0061 30.9791C19.1455 31.5789 19.0301 31.8126 18.5943 31.8126C18.2607 31.8126 17.9883 31.9793 17.9883 32.1831C17.9883 32.3868 17.7949 32.5535 17.5584 32.5535C17.322 32.5535 16.3802 33.1596 15.4658 33.9005C14.551 34.6414 13.164 36.0461 12.3834 37.0226C11.3296 38.3403 10.8548 38.69 10.5411 38.38C10.3088 38.1503 10.1184 37.7595 10.1184 37.5116C10.1184 37.2638 9.47495 36.5574 8.68871 35.9417C7.62178 35.1067 6.78945 34.7929 5.4096 34.7066L3.56018 34.591L5.19299 32.8395C6.09091 31.8763 7.865 30.4394 9.13505 29.6466C10.4051 28.8535 12.7057 27.7766 14.2478 27.2531C15.7896 26.7297 17.2223 26.2911 17.431 26.2788C17.6401 26.2662 18.0362 27.1309 18.3117 28.2007ZM25.8581 33.1111C28.8468 33.4241 33.7374 33.9212 36.7261 34.2165C39.7147 34.5117 44.9426 35.0163 48.3435 35.3382C51.7444 35.6598 56.6541 36.165 59.2534 36.461C61.8531 36.757 64.8466 36.9989 65.9053 36.9989C67.2825 36.9989 67.8308 37.143 67.8308 37.5046C67.8308 37.7828 67.471 38.4622 67.0314 39.0149C66.5918 39.5673 65.7487 40.9539 65.1577 42.096C64.3433 43.6704 64.0832 44.6884 64.0832 46.3017C64.0832 47.6994 64.2762 48.6207 64.6454 48.9856C64.9545 49.2912 65.2075 49.6365 65.2075 49.7532C65.2075 49.8695 64.491 49.9651 63.6148 49.9651C62.7386 49.9654 59.7454 49.7943 56.9629 49.585C54.1803 49.3753 49.0368 48.9537 45.5328 48.6477C42.0289 48.3417 36.9697 47.8394 34.2901 47.5308C31.6106 47.2226 27.5633 46.7195 25.296 46.4128C23.0287 46.1064 19.5716 45.5978 17.6135 45.2826C15.6554 44.9673 13.1682 44.5465 12.0859 44.3472C10.8668 44.1227 10.1184 43.7952 10.1184 43.4855C10.1184 43.211 10.4133 42.4386 10.7742 41.7692C11.1347 41.0998 11.641 40.3241 11.8985 40.0455C12.1563 39.7669 12.3669 39.4146 12.3669 39.2627C12.3669 39.1105 13.2521 38.0562 14.3344 36.9197C15.4167 35.7831 17.0608 34.3409 17.9883 33.7149C18.9158 33.0892 19.8433 32.5691 20.0494 32.5598C20.2555 32.5502 22.8695 32.7984 25.8581 33.1111ZM80.5358 33.3274C81.3969 33.5823 82.0674 34.0861 82.3593 34.6977C82.6134 35.2297 82.821 36.1902 82.821 36.8322C82.821 37.4746 82.3848 38.8108 81.8519 39.8018C81.319 40.7927 80.3536 42.2638 79.7072 43.0706C79.0607 43.8775 77.7262 45.3341 76.7414 46.3072L74.9511 48.0772V46.8436C74.9511 46.165 74.6858 44.9818 74.3613 44.2138C74.0367 43.4462 73.5728 42.632 73.3307 42.4042C73.0882 42.1767 72.3893 41.6729 71.7773 41.285C71.132 40.8761 69.9984 40.5801 69.0783 40.5801H67.492L68.6005 39.1961C69.2106 38.4352 70.3409 37.2901 71.1125 36.6518C71.8838 36.0135 72.6839 35.3708 72.89 35.2237C73.0961 35.0767 73.7707 34.7147 74.389 34.4199C75.0074 34.125 76.2722 33.6875 77.1997 33.4478C78.1272 33.2081 78.9509 32.9921 79.03 32.9681C79.1091 32.9436 79.7866 33.1055 80.5358 33.3274ZM6.7456 36.2332C6.7456 36.4233 7.06677 36.6792 7.45914 36.8022C7.85113 36.9256 8.46049 37.6268 8.81276 38.3607C9.24672 39.2642 9.38688 40.187 9.2471 41.2176C9.10994 42.2293 8.7127 43.0187 8.0625 43.5711C7.52472 44.0286 6.66053 44.508 6.14225 44.6365C5.54526 44.7847 4.7163 44.6158 3.87947 44.176C3.08199 43.7567 2.27514 42.9043 1.84192 42.023C1.44731 41.2206 1.12427 40.3511 1.12427 40.0907C1.12427 39.8303 1.39484 39.056 1.72575 38.3703C2.05666 37.6843 2.77357 36.8496 3.31846 36.5151C3.86373 36.181 4.85796 35.9028 5.52765 35.8976C6.19734 35.892 6.7456 36.0432 6.7456 36.2332ZM3.73669 38.6789C3.47436 38.9916 3.27462 39.778 3.29335 40.4271C3.31247 41.0917 3.61377 41.8137 3.98365 42.0811C4.34492 42.3423 5.07756 42.5557 5.61234 42.5557C6.2944 42.5557 6.78196 42.2249 7.24815 41.4443C7.88374 40.3808 7.88374 40.2852 7.24815 39.2216C6.73286 38.3596 6.31838 38.1103 5.39911 38.1103C4.7474 38.1103 3.99939 38.3663 3.73669 38.6789ZM70.4106 42.2197C71.156 42.4423 72.097 43.0628 72.5017 43.5985C73.0167 44.2798 73.2381 45.1618 73.2381 46.5325C73.2381 48.1747 73.0714 48.657 72.2124 49.5064C71.3925 50.317 70.8412 50.5204 69.4659 50.5204C67.9301 50.5204 67.6086 50.3644 66.4764 49.0693C65.5609 48.0228 65.2075 47.2611 65.2075 46.3346C65.2075 45.6286 65.5512 44.5013 65.9713 43.8297C66.3914 43.1577 67.1922 42.4427 67.7513 42.2408C68.3105 42.0385 68.8325 41.86 68.9116 41.844C68.9907 41.8281 69.6652 41.997 70.4106 42.2197ZM82.4459 47.2789V52.3726L80.1037 54.9017C78.8156 56.2927 76.6233 58.5977 75.2322 60.0243L72.7026 62.6178L72.6936 58.4213C72.6887 56.1134 72.5422 53.6192 72.3683 52.8787C72.0595 51.5665 72.0944 51.5061 73.7632 50.4707C74.7046 49.8869 75.8453 49.0756 76.2988 48.6681C76.7519 48.2606 77.5194 47.5727 78.0043 47.1396C78.4892 46.7066 79.3208 45.8731 79.8522 45.2874C80.384 44.7017 81.12 43.7641 81.4884 43.204C81.8564 42.6439 82.2225 42.1852 82.302 42.1852C82.3814 42.1852 82.4463 44.4776 82.4459 47.2789ZM67.935 44.5005C67.7356 44.7554 67.462 45.2685 67.3271 45.6412C67.1922 46.0142 67.1761 46.6899 67.2911 47.1426C67.4088 47.6057 67.9803 48.1454 68.596 48.3755C69.5187 48.7196 69.8414 48.6685 70.6351 48.0509C71.18 47.6275 71.5783 46.9381 71.5783 46.4184C71.5783 45.9238 71.2411 45.1859 70.8288 44.7784C70.4166 44.3709 69.6783 44.0375 69.1881 44.0375C68.6983 44.0375 68.1343 44.2461 67.935 44.5005ZM11.0864 45.5404C12.3059 45.7556 14.6529 46.1631 16.3019 46.4454C17.9508 46.7281 21.2393 47.2163 23.6096 47.5305C25.9799 47.845 30.0273 48.3506 32.6037 48.6548C35.1802 48.9589 39.7335 49.4557 42.7222 49.7583C45.7108 50.0614 49.7582 50.4126 51.7163 50.5389C53.6744 50.6656 58.2277 51.0175 61.8347 51.3209C65.4417 51.6247 68.9341 51.9021 69.5955 51.9377C70.7588 51.9999 70.8067 52.0681 71.0514 54.0037C71.1905 55.1047 71.2171 57.8216 71.1106 60.0417C71.0042 62.2614 70.8221 64.1722 70.7055 64.287C70.5894 64.4019 67.2387 64.3052 63.2599 64.0722C59.2815 63.8388 53.2434 63.3991 49.8425 63.0946C46.4416 62.7904 41.2981 62.2862 38.4125 61.9743C35.5268 61.6624 31.3108 61.1619 29.0436 60.8622C26.7763 60.5622 23.2349 60.0598 21.1737 59.7457C19.1125 59.4312 15.9927 58.9229 14.2407 58.6162C12.4887 58.3091 10.2964 57.886 9.36889 57.6764C8.44137 57.4663 7.40105 57.2222 7.05703 57.1336C6.57584 57.0095 6.3716 56.3368 6.16998 54.2093C6.02607 52.6897 6.02307 50.231 6.16398 48.7455C6.37909 46.4776 6.55148 45.9798 7.23878 45.6423C7.68886 45.4207 8.23975 45.2192 8.46311 45.1944C8.68646 45.1692 9.86694 45.3252 11.0864 45.5404Z" fill="white"/>
</svg>
