<svg width="68" height="74" viewBox="0 0 68 74" fill="none" xmlns="http://www.w3.org/2000/svg">
<path d="M67 24.5673V65.0485C67 66.1359 66.7789 67.1728 66.3767 68.1157C66.3513 68.1808 66.3223 68.2422 66.2933 68.3072C65.275 66.0456 63.2165 64.3368 60.7305 63.7913C60.1833 63.672 59.6107 63.607 59.0272 63.607H8.97276C4.58774 63.607 1 60.0303 1 55.6589V24.5673C1 20.1958 4.58774 16.6191 8.97276 16.6191H59.0272C63.4123 16.6191 67 20.1958 67 24.5673Z" stroke="white" stroke-miterlimit="10" stroke-linecap="round" stroke-linejoin="round"/>
<path d="M66.2931 68.3116C65.0428 71.0717 62.2487 73.001 59.027 73.001H56.7656V63.6113H59.027C59.6104 63.6113 60.183 63.6764 60.7302 63.7956C63.2163 64.3411 65.2747 66.05 66.2931 68.3116Z" stroke="white" stroke-miterlimit="10"/>
<path d="M66.2931 68.3116C65.0428 71.0717 62.2487 73.001 59.027 73.001H56.7656V63.6113H59.027C59.6104 63.6113 60.183 63.6764 60.7302 63.7956C63.2163 64.3411 65.2747 66.05 66.2931 68.3116Z" stroke="white" stroke-miterlimit="10"/>
<path d="M66.2931 68.3116C65.0428 71.0717 62.2487 73.001 59.027 73.001H56.7656V63.6113H59.027C59.6104 63.6113 60.183 63.6764 60.7302 63.7956C63.2163 64.3411 65.2747 66.05 66.2931 68.3116Z" stroke="white" stroke-miterlimit="10" stroke-linecap="round" stroke-linejoin="round"/>
<path d="M38.5668 46.1387L48.9277 46.1387L48.9278 11.1994L38.5669 11.1994L38.5668 46.1387Z" stroke="white" stroke-miterlimit="10" stroke-linecap="round" stroke-linejoin="round"/>
<path d="M38.5668 11.1992L48.9277 11.1992L48.9277 7.62979L38.5668 7.62977L38.5668 11.1992Z" stroke="white" stroke-miterlimit="10" stroke-linecap="round" stroke-linejoin="round"/>
<path d="M48.9273 46.1387H38.5664L43.7486 56.3376L48.9273 46.1387Z" stroke="white" stroke-miterlimit="10" stroke-linecap="round" stroke-linejoin="round"/>
<path d="M46.3369 51.2383H41.1582" stroke="white" stroke-miterlimit="10" stroke-linecap="round" stroke-linejoin="round"/>
<path d="M45.2207 46.1423V11.2031" stroke="white" stroke-miterlimit="10" stroke-linecap="round" stroke-linejoin="round"/>
<path d="M41.8936 1H45.6045C47.4346 1 48.9313 2.49208 48.9313 4.31653V7.63307H38.5703V4.31653C38.5667 2.49208 40.0635 1 41.8936 1Z" stroke="white" stroke-miterlimit="10" stroke-linecap="round" stroke-linejoin="round"/>
<path d="M11.0996 56.3398H57.4575" stroke="white" stroke-miterlimit="10" stroke-linecap="round" stroke-linejoin="round"/>
<path d="M5.64062 37.9395H38.5718" stroke="white" stroke-miterlimit="10" stroke-linecap="round" stroke-linejoin="round"/>
<path d="M19.5625 21.4922V54.3902" stroke="white" stroke-miterlimit="10" stroke-linecap="round" stroke-linejoin="round"/>
<path d="M19.5664 48.4641C25.3967 48.4641 30.1231 43.7523 30.1231 37.9401C30.1231 32.1278 25.3967 27.416 19.5664 27.416C13.7361 27.416 9.00977 32.1278 9.00977 37.9401C9.00977 43.7523 13.7361 48.4641 19.5664 48.4641Z" stroke="white" stroke-miterlimit="10" stroke-linecap="round" stroke-linejoin="round"/>
</svg>
